<svg width="114" height="32" viewBox="0 0 114 32" fill="none" xmlns="http://www.w3.org/2000/svg">
<rect width="114" height="32" rx="16" fill="#E0F9E2"/>
<circle cx="16" cy="16" r="8" fill="#30AB30"/>
<path d="M43.5195 21.5L42.5215 18.7246H38.7002L37.7227 21.5H36L39.7393 11.4648H41.5166L45.2559 21.5H43.5195ZM42.0908 17.3164L41.1543 14.5957C41.0859 14.4134 40.9902 14.1263 40.8672 13.7344C40.7487 13.3424 40.6667 13.0553 40.6211 12.873C40.498 13.4336 40.318 14.0465 40.0811 14.7119L39.1787 17.3164H42.0908ZM50.0131 21.6367C48.8692 21.6367 47.9988 21.304 47.4018 20.6387C46.8093 19.9688 46.5131 19.0094 46.5131 17.7607C46.5131 16.4893 46.823 15.5117 47.4428 14.8281C48.0672 14.1445 48.9672 13.8027 50.143 13.8027C50.9405 13.8027 51.6583 13.9508 52.2963 14.2471L51.811 15.5391C51.1319 15.2747 50.5714 15.1426 50.1293 15.1426C48.8214 15.1426 48.1674 16.0107 48.1674 17.7471C48.1674 18.5947 48.3292 19.2327 48.6528 19.6611C48.9809 20.085 49.4594 20.2969 50.0883 20.2969C50.8038 20.2969 51.4806 20.1191 52.1186 19.7637V21.165C51.8315 21.3337 51.5239 21.4544 51.1957 21.5273C50.8722 21.6003 50.478 21.6367 50.0131 21.6367ZM57.2723 20.3379C57.6643 20.3379 58.0562 20.2764 58.4481 20.1533V21.3633C58.2704 21.4408 58.0402 21.5046 57.7577 21.5547C57.4797 21.6094 57.1903 21.6367 56.8895 21.6367C55.3674 21.6367 54.6063 20.8346 54.6063 19.2305V15.1562H53.5741V14.4453L54.6815 13.8574L55.2284 12.2578H56.2196V13.9395H58.3729V15.1562H56.2196V19.2031C56.2196 19.5905 56.3153 19.8776 56.5067 20.0645C56.7027 20.2467 56.9579 20.3379 57.2723 20.3379ZM62.1321 21.5H60.5257V13.9395H62.1321V21.5ZM60.43 11.9365C60.43 11.6494 60.5075 11.4284 60.6624 11.2734C60.8219 11.1185 61.0475 11.041 61.3392 11.041C61.6217 11.041 61.8405 11.1185 61.9954 11.2734C62.1549 11.4284 62.2347 11.6494 62.2347 11.9365C62.2347 12.21 62.1549 12.4264 61.9954 12.5859C61.8405 12.7409 61.6217 12.8184 61.3392 12.8184C61.0475 12.8184 60.8219 12.7409 60.6624 12.5859C60.5075 12.4264 60.43 12.21 60.43 11.9365ZM66.7185 21.5L63.8474 13.9395H65.5427L67.0808 18.335C67.3451 19.0732 67.5046 19.6702 67.5593 20.126H67.614C67.655 19.7979 67.8145 19.2008 68.0925 18.335L69.6306 13.9395H71.3396L68.4548 21.5H66.7185ZM76.3498 21.6367C75.174 21.6367 74.2534 21.2949 73.5881 20.6113C72.9273 19.9232 72.5969 18.9775 72.5969 17.7744C72.5969 16.5394 72.9045 15.5687 73.5197 14.8623C74.135 14.1559 74.9803 13.8027 76.0559 13.8027C77.0539 13.8027 77.8423 14.1058 78.4211 14.7119C78.9999 15.318 79.2893 16.152 79.2893 17.2139V18.082H74.2512C74.274 18.8158 74.4722 19.3809 74.8459 19.7773C75.2196 20.1693 75.746 20.3652 76.425 20.3652C76.8716 20.3652 77.2863 20.3242 77.6691 20.2422C78.0565 20.1556 78.4712 20.0143 78.9133 19.8184V21.124C78.5214 21.3109 78.1249 21.443 77.7238 21.5205C77.3228 21.598 76.8648 21.6367 76.3498 21.6367ZM76.0559 15.0195C75.5454 15.0195 75.1353 15.1813 74.8254 15.5049C74.5201 15.8285 74.3378 16.3001 74.2785 16.9199H77.7102C77.701 16.2956 77.5507 15.8239 77.259 15.5049C76.9673 15.1813 76.5663 15.0195 76.0559 15.0195Z" fill="#30AB30"/>
</svg>
