<svg width="88" height="88" viewBox="0 0 88 88" fill="none" xmlns="http://www.w3.org/2000/svg">
<path d="M86.1095 45.8907C86.1095 63.2913 75.5551 78.2269 60.499 84.6451C59.8904 84.9044 59.2856 83.4129 58.6627 83.6441C54.0996 85.3377 49.1633 86.2631 44.0109 86.2631C38.6585 86.2631 33.5394 85.2645 28.8295 83.4435C28.3762 83.2682 27.9158 84.8224 27.4701 84.632C12.4305 78.2066 1.89062 63.2796 1.89062 45.8907C1.89062 22.6342 20.7436 3.78125 44 3.78125C67.2565 3.78125 86.1095 22.6342 86.1095 45.8907Z" fill="#00C8DE"/>
<path d="M78.3751 43.2969C78.3751 62.2817 62.9849 77.6719 44 77.6719C25.0152 77.6719 9.625 62.2817 9.625 43.2969C9.625 24.3121 25.0152 8.92188 44 8.92188C62.9849 8.92188 78.3751 24.3121 78.3751 43.2969Z" fill="#2DD2E3"/>
<path d="M10.7689 74.9703C4.51742 74.9703 4.24156 65.5667 10.4884 65.3245C10.5759 65.3211 10.664 65.3193 10.7529 65.3193H37.7249C38.6742 65.3193 39.4437 66.0888 39.4437 67.0381V74.9701H10.7689V74.9703Z" fill="#00A86D"/>
<path d="M39.4433 73.9619V77.5849C39.4433 78.5341 38.6738 79.3036 37.7245 79.3036H8.44713C8.04013 79.3036 7.66252 79.0912 7.45112 78.7433L7.38288 78.6311L5.55465 74.7732C5.32674 74.398 4.83208 74.351 5.96852 73.9619H39.4433Z" fill="#00915D"/>
<path d="M44.5827 16.501L31.1345 38.639C30.5716 39.5656 29.4441 39.9817 28.414 39.6429L21.8531 37.4845L38.806 9.57715L40.4929 10.4262C43.8895 9.87759 46.369 13.5607 44.5827 16.501ZM22.9214 42.4694C22.8145 41.7812 22.1318 41.3399 21.4603 41.5248L21.0487 41.6382L2.9834 71.3769L7.38323 78.6314L20.9669 56.2703L23.3393 57.8041C24.1844 58.3505 25.278 57.641 25.1235 56.6465L22.9214 42.4694Z" fill="#4BCD5C"/>
<path d="M39.042 9.69595L22.1098 37.5691L18.4867 36.3772C17.4893 36.0491 17.0571 34.8777 17.6023 33.9804L31.7357 10.7141C32.3698 9.67034 33.5024 9.0332 34.7238 9.0332H37.7249L39.042 9.69595ZM7.30538 47.4377L9.23245 48.6836C9.16438 48.7742 9.10045 48.8687 9.04098 48.9667L0.677532 62.7344C-0.225844 64.2215 -0.225844 66.0877 0.677532 67.5747L3.13724 71.6305L21.4186 41.5363L7.62868 45.3356C6.65844 45.6029 6.46044 46.8915 7.30538 47.4377Z" fill="#00C53B"/>
<path d="M73.6365 29.9851L68.2044 43.2642C68.1494 43.3988 68.0724 43.5172 67.9794 43.6171C67.801 43.8089 67.4836 43.7625 67.3475 43.5387L46.6503 9.53044C46.5176 9.31233 46.6745 9.0332 46.9297 9.0332H55.5579C56.779 9.0332 57.9119 9.67052 58.5459 10.7141L69.8213 29.2753L72.1696 28.4453C73.1183 28.1098 74.0176 29.0537 73.6365 29.9851Z" fill="#BAED6A"/>
<path d="M67.9975 43.5976C67.6474 43.9916 67.0554 44.1141 66.5645 43.8439L53.9948 36.9273C53.1131 36.4421 53.2195 35.1429 54.1682 34.8076L56.3512 34.0361L41.1626 9.0332H46.9617L67.9975 43.5976Z" fill="#A3E72D"/>
<path d="M76.8852 44.638L87.4899 62.0488C88.0975 63.0463 88.1624 64.2725 87.6846 65.3192C87.6281 65.4431 86.1814 65.5645 86.1096 65.6826L79.0324 77.3328L73.6111 66.1533L63.6994 49.8673C63.0752 48.8415 63.569 47.5019 64.7096 47.1267L74.7099 43.8367C75.5332 43.566 76.4344 43.8979 76.8852 44.638Z" fill="#00A86D"/>
<path d="M82.5009 71.6233L79.0319 77.3337L73.6107 66.1543L63.699 49.8682C63.0747 48.8425 63.5685 47.5029 64.7091 47.1277L68.0063 46.043L78.2894 62.9393L82.5009 71.6233Z" fill="#00915D"/>
<path d="M60.4245 84.6767C55.3776 86.8166 49.8271 88.0001 44 88.0001C40.7129 88.0001 37.5136 87.6233 34.4432 86.9109C34.0168 86.8119 31.5875 85.5295 31.5825 84.5813C31.5825 84.5751 31.5825 84.5688 31.5825 84.5626V46.4063C31.5825 45.1186 32.2905 43.9964 33.3386 43.4074C32.2621 42.4624 31.5825 41.0763 31.5825 39.5313C31.5825 38.2529 32.0478 37.0833 32.8181 36.1823C32.0218 34.2475 31.5825 32.1283 31.5825 29.9063V28.5313C31.5825 21.6068 35.8481 15.6784 41.895 13.2308V3.83298C42.5923 3.79861 43.2941 3.78125 44 3.78125C46.102 3.78125 48.1681 3.93525 50.1875 4.23259V12.1144C50.1875 12.776 50.5687 13.376 51.1644 13.6636C56.6888 16.3307 60.5 21.9859 60.5 28.5313V29.9063C60.5 32.1283 60.0607 34.2477 59.2644 36.1823C60.0347 37.0833 60.5 38.2529 60.5 39.5313C60.5 41.0763 59.8204 42.4624 58.7439 43.4074C59.792 43.9964 60.5 45.1186 60.5 46.4063V84.5626C60.4751 84.6002 60.4495 84.6391 60.4245 84.6767Z" fill="#D5F3F7"/>
<path d="M55.3376 45.1294C55.2785 46.0429 54.4791 46.7339 53.5637 46.7339H36.3363C34.7787 46.7339 33.516 47.9966 33.516 49.5542V84.5622C33.516 85.4702 33.8681 86.2961 34.4432 86.9106C32.0708 86.36 29.7753 85.6089 27.5755 84.6764C27.5505 84.6387 27.5249 84.5999 27.5 84.5624V46.4059C27.5 45.1183 28.208 43.9961 29.256 43.4071C28.1796 42.4621 27.5 41.0759 27.5 39.5309C27.5 38.2525 27.9653 37.0829 28.7356 36.182C27.9393 34.2473 27.5 32.1279 27.5 29.9059V28.5309C27.5 21.9856 31.3112 16.3304 36.8356 13.6634C37.4313 13.3757 37.8125 12.7758 37.8125 12.1143V4.23225C39.777 3.94298 41.7856 3.78933 43.8285 3.78125V11.0677C43.8285 12.33 43.1302 13.4788 42.0264 14.091C36.9512 16.9051 33.516 22.3168 33.516 28.5309V29.9059V29.9346C33.5186 31.4788 34.7921 32.7206 36.3364 32.7206H53.5637C54.4791 32.7206 55.2785 33.4113 55.3376 34.325C55.4024 35.326 54.6097 36.1581 53.6226 36.1581C53.6226 36.1581 40.9809 36.1687 36.3914 36.177C35.1031 36.1792 33.9692 37.0511 33.6634 38.3025C33.5672 38.6961 33.5161 39.1076 33.5161 39.5309C33.5161 40.297 33.6832 41.024 33.983 41.6775C34.4383 42.6706 35.4432 43.2964 36.5358 43.2964H53.6228C54.6097 43.2964 55.4024 44.1284 55.3376 45.1294Z" fill="#AFEAF2"/>
<path d="M43.7039 9.27344H39.0889C38.1396 9.27344 37.3701 8.50396 37.3701 7.55469V4.11719C37.3701 3.16792 38.1396 2.39844 39.0889 2.39844H43.7039C44.6532 2.39844 45.4226 3.16792 45.4226 4.11719V7.55469C45.4226 8.50396 44.653 9.27344 43.7039 9.27344Z" fill="#87E0EC"/>
<path d="M48.9112 9.27344H43.2695C42.3203 9.27344 41.5508 8.50396 41.5508 7.55469V4.11719C41.5508 3.16792 42.3203 2.39844 43.2695 2.39844H48.9112C49.8604 2.39844 50.6299 3.16792 50.6299 4.11719V7.55469C50.6299 8.50396 49.8604 9.27344 48.9112 9.27344Z" fill="#AFEAF2"/>
<path d="M45.2891 6.87501H37.8125C36.8632 6.87501 36.0938 6.10552 36.0938 5.15625V1.71875C36.0938 0.769485 36.8632 0 37.8125 0H45.2891C46.2383 0 47.0078 0.769485 47.0078 1.71875V5.15625C47.0078 6.10552 46.2383 6.87501 45.2891 6.87501Z" fill="#005AAF"/>
<path d="M50.1875 6.87501H43.8281C42.8789 6.87501 42.1094 6.10552 42.1094 5.15625V1.71875C42.1094 0.769485 42.8789 0 43.8281 0H50.1875C51.1368 0 51.9063 0.769485 51.9063 1.71875V5.15625C51.9063 6.10552 51.1368 6.87501 50.1875 6.87501Z" fill="#0573CF"/>
<path d="M87.6844 65.32L80.2517 77.6235C79.6176 78.6673 78.485 79.3044 77.2636 79.3044H54.5211V81.8587C54.5211 82.865 53.3316 83.3982 52.5803 82.7285L41.8704 73.1819C41.3505 72.7185 41.3505 71.9054 41.8704 71.442L52.5803 61.8954C53.3316 61.2257 54.5211 61.7591 54.5211 62.7654V65.3196H87.6844V65.32Z" fill="#4BCD5C"/>
<path d="M82.4754 73.9621L80.2517 77.6229C79.6176 78.6667 78.485 79.3038 77.2636 79.3038H54.5211V81.858C54.5211 82.8644 53.3315 83.3975 52.5803 82.7279L42.7461 73.9619L82.4754 73.9621Z" fill="#00C53B"/>
</svg>
