<svg width="39" height="39" viewBox="0 0 39 39" fill="none" xmlns="http://www.w3.org/2000/svg">
<rect width="39" height="39" rx="19.5" fill="#83CBFF"/>
<g clip-path="url(#clip0_4685_41120)">
<path d="M11 11.5C10.1719 11.5 9.5 12.1719 9.5 13V26C9.5 26.8281 10.1719 27.5 11 27.5H14V25C14 24.1719 14.6719 23.5 15.5 23.5C16.3281 23.5 17 24.1719 17 25V27.5H19.8094C19.6125 27.1812 19.5 26.8062 19.5 26.4031C19.5 24.9375 20.3062 23.6594 21.5 22.9906V19.9937V13C21.5 12.1719 20.8281 11.5 20 11.5H11ZM11.5 19C11.5 18.725 11.725 18.5 12 18.5H13C13.275 18.5 13.5 18.725 13.5 19V20C13.5 20.275 13.275 20.5 13 20.5H12C11.725 20.5 11.5 20.275 11.5 20V19ZM15 18.5H16C16.275 18.5 16.5 18.725 16.5 19V20C16.5 20.275 16.275 20.5 16 20.5H15C14.725 20.5 14.5 20.275 14.5 20V19C14.5 18.725 14.725 18.5 15 18.5ZM17.5 19C17.5 18.725 17.725 18.5 18 18.5H19C19.275 18.5 19.5 18.725 19.5 19V20C19.5 20.275 19.275 20.5 19 20.5H18C17.725 20.5 17.5 20.275 17.5 20V19ZM12 14.5H13C13.275 14.5 13.5 14.725 13.5 15V16C13.5 16.275 13.275 16.5 13 16.5H12C11.725 16.5 11.5 16.275 11.5 16V15C11.5 14.725 11.725 14.5 12 14.5ZM14.5 15C14.5 14.725 14.725 14.5 15 14.5H16C16.275 14.5 16.5 14.725 16.5 15V16C16.5 16.275 16.275 16.5 16 16.5H15C14.725 16.5 14.5 16.275 14.5 16V15ZM18 14.5H19C19.275 14.5 19.5 14.725 19.5 15V16C19.5 16.275 19.275 16.5 19 16.5H18C17.725 16.5 17.5 16.275 17.5 16V15C17.5 14.725 17.725 14.5 18 14.5ZM27.5 20C27.5 19.337 27.2366 18.7011 26.7678 18.2322C26.2989 17.7634 25.663 17.5 25 17.5C24.337 17.5 23.7011 17.7634 23.2322 18.2322C22.7634 18.7011 22.5 19.337 22.5 20C22.5 20.663 22.7634 21.2989 23.2322 21.7678C23.7011 22.2366 24.337 22.5 25 22.5C25.663 22.5 26.2989 22.2366 26.7678 21.7678C27.2366 21.2989 27.5 20.663 27.5 20ZM20.5 26.4094C20.5 27.0125 20.9875 27.5 21.5906 27.5H28.4094C29.0125 27.5 29.5 27.0125 29.5 26.4094C29.5 24.8031 28.1969 23.5 26.5906 23.5H23.4094C21.8031 23.5 20.5 24.8031 20.5 26.4094Z" fill="white"/>
</g>
<defs>
<clipPath id="clip0_4685_41120">
<rect width="20" height="16" fill="white" transform="translate(9.5 11.5)"/>
</clipPath>
</defs>
</svg>
