<svg width="24" height="24" viewBox="0 0 24 24" fill="none" xmlns="http://www.w3.org/2000/svg">
<path d="M7.3439 12.9998H19.0718C19.6241 12.9998 20.0718 12.5521 20.0718 11.9998C20.0718 11.4475 19.6241 10.9998 19.0718 10.9998H7.3439L12.7079 5.63582C13.0984 5.24529 13.0984 4.61213 12.7079 4.2216C12.3173 3.83108 11.6842 3.83108 11.2936 4.2216L4.2227 11.2925C4.12683 11.3884 4.05437 11.4991 4.00557 11.617C3.95703 11.734 3.93009 11.8623 3.92969 11.9968C3.92969 11.9988 3.92969 12.0008 3.92969 12.0028C3.9305 12.2767 4.0414 12.5246 4.22046 12.7048C4.22117 12.7055 4.22187 12.7062 4.22258 12.7069L11.2936 19.778C11.6842 20.1685 12.3173 20.1685 12.7079 19.778C13.0984 19.3874 13.0984 18.7543 12.7079 18.3637L7.3439 12.9998Z" fill="white"/>
</svg>
