<svg width="40" height="40" viewBox="0 0 40 40" fill="none" xmlns="http://www.w3.org/2000/svg">
<rect width="40" height="40" rx="20" fill="#D42D1F"/>
<path d="M15.3429 20.9998H27.0708C27.6231 20.9998 28.0708 20.5521 28.0708 19.9998C28.0708 19.4475 27.6231 18.9998 27.0708 18.9998H15.3429L20.7069 13.6358C21.0974 13.2453 21.0974 12.6121 20.7069 12.2216C20.3164 11.8311 19.6832 11.8311 19.2927 12.2216L12.2217 19.2925C12.1259 19.3884 12.0534 19.4991 12.0046 19.617C11.9561 19.734 11.9291 19.8623 11.9287 19.9968C11.9287 19.9988 11.9287 20.0008 11.9287 20.0028C11.9295 20.2767 12.0404 20.5246 12.2195 20.7048C12.2202 20.7055 12.2209 20.7062 12.2216 20.7069L19.2927 27.778C19.6832 28.1685 20.3164 28.1685 20.7069 27.778C21.0974 27.3874 21.0974 26.7543 20.7069 26.3637L15.3429 20.9998Z" fill="white"/>
</svg>
