<svg width="108" height="86" viewBox="0 0 108 86" fill="none" xmlns="http://www.w3.org/2000/svg">
<path fill-rule="evenodd" clip-rule="evenodd" d="M57.679 85.1719L94.865 63.6118L94.8648 38.0527L57.6787 59.6129L57.679 85.1719Z" fill="#DCA860"/>
<path fill-rule="evenodd" clip-rule="evenodd" d="M88.0599 60.5717L89.9074 59.5006V61.2658C89.9074 61.8089 89.5561 62.4653 89.1138 62.7972V64.7587L89.6862 64.4268V64.7134L88.281 65.5282V65.2416L88.8666 64.902V62.9407C88.411 63.1294 88.0599 62.8802 88.0599 62.3371V60.5717ZM85.8219 61.8842C86.5246 61.4767 87.123 61.6277 87.3702 62.1936C87.201 62.1559 87.045 62.201 86.8758 62.4802C86.7066 62.4274 86.5374 62.5104 86.3943 62.7593C86.2381 62.7593 86.0691 62.797 85.8999 62.88V66.1692C85.8999 66.3199 85.952 66.4106 86.043 66.4634C86.121 66.5088 86.2381 66.5011 86.3684 66.4258C86.4985 66.3502 86.6156 66.222 86.6936 66.0862C86.7716 65.9503 86.8237 65.7996 86.8237 65.6638L87.0058 65.5582C86.9929 65.7468 86.9278 65.9657 86.8107 66.1541C86.7066 66.3502 86.5376 66.5388 86.3684 66.637C86.1992 66.7351 86.03 66.7426 85.9258 66.6672C85.8087 66.5993 85.7307 66.4634 85.7307 66.2674V62.9782C85.5745 63.0838 85.4055 63.227 85.2363 63.4308C85.0801 63.3101 84.9241 63.4157 84.7678 63.7025C84.5986 63.6346 84.4426 63.7553 84.2734 63.9893C84.5209 63.1366 85.1194 62.2915 85.8219 61.8842ZM90.8574 64.0344L93.2254 62.6614V62.3748L90.8574 63.7478V64.0344ZM91.6642 63.0386V59.7494L91.9374 59.591L91.5471 58.5499L91.1439 60.0511L91.417 59.8927V63.1819L91.6642 63.0386ZM92.6528 62.4653V59.1761L92.9391 59.0102L92.5359 57.9766L92.1325 59.4778L92.4188 59.3119V62.6011L92.6528 62.4653Z" fill="#40484C"/>
<path fill-rule="evenodd" clip-rule="evenodd" d="M57.6788 59.6132L94.8644 38.0523L57.6788 16.4912L20.4932 38.0523L57.6788 59.6132Z" fill="#CE9C6A"/>
<path fill-rule="evenodd" clip-rule="evenodd" d="M8.39258 22.3902L45.5779 0.829102L57.6783 16.4908L20.4927 38.0519L8.39258 22.3902Z" fill="#EDC990"/>
<path fill-rule="evenodd" clip-rule="evenodd" d="M57.6787 60.0642V59.6127L94.8643 38.5033L106.653 36.415V36.8665L69.4675 58.4276L57.6787 60.0642Z" fill="#CFA472"/>
<path fill-rule="evenodd" clip-rule="evenodd" d="M20.4922 63.6118L57.6783 85.1719L57.6785 59.6129L20.4924 38.0527L20.4922 63.6118Z" fill="#BB7B3F"/>
<path fill-rule="evenodd" clip-rule="evenodd" d="M0 42.1255L37.1861 63.6857L57.6785 60.0943V59.6127L20.4924 38.5342L0 41.6439V42.1255Z" fill="#A88260"/>
<path fill-rule="evenodd" clip-rule="evenodd" d="M57.6787 16.4925L94.8648 38.0526L108 22.3893L70.8142 0.829102L57.6787 16.4925Z" fill="#EDC990"/>
<path fill-rule="evenodd" clip-rule="evenodd" d="M57.6787 59.6127L94.8643 38.0518L106.653 36.415L69.4675 57.9762L57.6787 59.6127Z" fill="#EDC990"/>
<path fill-rule="evenodd" clip-rule="evenodd" d="M69.4675 57.9766V58.428L57.6787 60.0646V59.6131L69.4675 57.9766Z" fill="#B78E65"/>
<path fill-rule="evenodd" clip-rule="evenodd" d="M57.6783 16.4922V35.4723L36.2811 47.2067L20.4922 38.0523L57.6783 16.4922Z" fill="#DDA962"/>
<path fill-rule="evenodd" clip-rule="evenodd" d="M57.6787 16.4922V35.4723L78.1106 48.0138L94.8643 38.0516L57.6787 16.4922Z" fill="#BB7B3F"/>
<path fill-rule="evenodd" clip-rule="evenodd" d="M57.678 16.4912L53.7046 36.5917L34.8984 46.4303L36.2808 47.2074L57.678 35.4731V16.4912Z" fill="#C58A4B"/>
<path fill-rule="evenodd" clip-rule="evenodd" d="M0 41.6441L37.1861 63.2043L57.6785 59.6129L20.4924 38.0527L0 41.6441Z" fill="#EDC990"/>
<path fill-rule="evenodd" clip-rule="evenodd" d="M8.39258 22.3906V23.0218L20.0489 38.1308L20.4922 38.053L8.39258 22.3906Z" fill="#A88260"/>
<path fill-rule="evenodd" clip-rule="evenodd" d="M58.8372 76.6089L65.0174 73.0257C65.1084 72.9729 65.1866 73.0182 65.1866 73.1387V79.6115C65.1866 79.7322 65.1086 79.8681 65.0174 79.9209L58.8372 83.5041C58.7462 83.5569 58.668 83.5115 58.668 83.391V76.9182C58.668 76.7975 58.746 76.6617 58.8372 76.6089Z" fill="#C8B095"/>
<path fill-rule="evenodd" clip-rule="evenodd" d="M59.123 76.972L64.7309 73.7207V79.5445L59.123 82.7961V76.972Z" fill="#ECCCAE"/>
<path fill-rule="evenodd" clip-rule="evenodd" d="M108 22.3896V23.072L95.3803 37.9805L94.8643 38.0523L108 22.3896Z" fill="#C58A4B"/>
</svg>
