<?xml version="1.0" encoding="UTF-8"?>
<svg width="125.697226px" height="30.2965px" viewBox="0 0 125.697226 30.2965" version="1.1" xmlns="http://www.w3.org/2000/svg" xmlns:xlink="http://www.w3.org/1999/xlink">
    <title>CVS Logo_White</title>
    <g id="Page-3" stroke="none" stroke-width="1" fill="none" fill-rule="evenodd">
        <g id="EPR_CVS-Design-Optimization-(1)" transform="translate(-74.962874, -22.332900)" fill="#FFFFFF">
            <g id="CVS-Logo_White" transform="translate(74.962874, 22.332900)">
                <path d="M10.3861257,0.039 C9.2861257,0.039 8.1851257,0.454 7.3451257,1.287 L1.2571257,7.301 C-0.419874302,8.957 -0.419874302,11.654 1.2621257,13.314 L18.4431257,30.288 L35.6251257,13.314 C37.3071257,11.655 37.3031257,8.961 35.6211257,7.301 L29.5381257,1.289 C28.6971257,0.456 27.5971257,0.04 26.4981257,0.04 C25.3941257,0.04 24.2901257,0.459 23.4461257,1.296 L18.4431257,6.238 L13.4341257,1.289 C12.5931257,0.456 11.4901257,0.039 10.3861257,0.039 L10.3861257,0.039 Z M67.0171257,0.805 L76.5141257,0.805 L81.3991257,19.337 L86.6311257,0.805 L95.7791257,0.805 L86.0111257,29.484 L76.7471257,29.484 L67.0171257,0.805 Z M68.9941257,18.342 C68.4901257,25.884 63.4511257,30.288 55.1181257,30.288 C45.8531257,30.288 40.1951257,24.469 40.1951257,15.164 C40.1951257,5.782 45.8931257,0 54.9241257,0 C63.3361257,0 68.2971257,4.213 68.8391257,11.641 L59.9621257,11.641 C59.6911257,8.73 58.0251257,7.198 55.0401257,7.198 C51.3971257,7.198 49.5751257,9.841 49.5751257,15.164 C49.5751257,20.372 51.5511257,23.09 55.3111257,23.09 C58.1411257,23.09 59.9241257,21.404 60.1961257,18.342 L68.9941257,18.342 Z M103.221126,20.524 C103.685126,22.669 104.926126,23.434 107.483126,23.434 C109.731126,23.434 110.972126,22.63 110.972126,21.367 C110.972126,19.566 109.306126,19.414 105.856126,18.533 C101.825126,17.5 99.2281257,16.619 98.0271257,15.776 C95.7791257,14.206 94.6921257,11.985 94.6921257,9.152 C94.6921257,3.6 99.1131257,0 106.825126,0 C114.306126,0 118.724126,3.256 119.228126,9.037 L110.429126,9.037 C110.120126,7.313 108.918126,6.51 106.670126,6.51 C104.693126,6.51 103.725126,7.16 103.725126,8.463 C103.725126,9.995 105.236126,10.263 108.026126,10.99 C111.631126,11.91 114.499126,12.483 116.322126,13.709 C118.880126,15.393 120.042126,17.461 120.042126,20.409 C120.042126,26.651 115.507126,30.288 107.097126,30.288 C99.3061257,30.288 94.7311257,26.651 94.1501257,20.524 L103.221126,20.524 Z" id="Fill-6447"></path>
                <path d="M122.324226,30.2965 L122.324226,27.1975 L122.948226,27.1975 L124.021226,29.5085 L125.084226,27.1975 L125.697226,27.1975 L125.697226,30.2965 L125.155226,30.2965 L125.155226,28.1555 L124.174226,30.2965 L123.847226,30.2965 L122.876226,28.1655 L122.876226,30.2965 L122.324226,30.2965 Z M119.177226,27.7015 L119.177226,27.1975 L121.803226,27.1975 L121.803226,27.7015 L120.792226,27.7015 L120.792226,30.2965 L120.188226,30.2965 L120.188226,27.7015 L119.177226,27.7015 Z" id="Fill-6449"></path>
            </g>
        </g>
    </g>
</svg>