<?xml version="1.0" encoding="UTF-8"?>
<svg width="194.101426px" height="46.7835px" viewBox="0 0 194.101426 46.7835" version="1.1" xmlns="http://www.w3.org/2000/svg" xmlns:xlink="http://www.w3.org/1999/xlink">
    <title>Group 2316</title>
    <g id="Page-1" stroke="none" stroke-width="1" fill="none" fill-rule="evenodd">
        <g id="EPR_CVS-Design-Optimization-(1)" transform="translate(-1220.602574, -264.516000)" fill="#D00E2C">
            <g id="Group-2316" transform="translate(1220.602574, 264.516000)">
                <path d="M16.0386265,0.06 C14.3396265,0.06 12.6386265,0.701 11.3416265,1.987 L1.94062646,11.274 C-0.648373536,13.832 -0.648373536,17.995 1.94962646,20.56 L28.4806265,46.771 L55.0126265,20.56 C57.6096265,17.997 57.6036265,13.838 55.0066265,11.274 L45.6136265,1.991 C44.3146265,0.703 42.6156265,0.061 40.9196265,0.061 C39.2136265,0.061 37.5096265,0.708 36.2056265,2.001 L28.4806265,9.632 L20.7456265,1.991 C19.4466265,0.703 17.7426265,0.06 16.0386265,0.06 L16.0386265,0.06 Z M103.488626,1.242 L118.153626,1.242 L125.697626,29.86 L133.775626,1.242 L147.901626,1.242 L132.818626,45.529 L118.513626,45.529 L103.488626,1.242 Z M106.541626,28.324 C105.763626,39.97 97.9816265,46.771 85.1136265,46.771 C70.8076265,46.771 62.0686265,37.784 62.0686265,23.415 C62.0686265,8.928 70.8676265,0 84.8136265,0 C97.8036265,0 105.465626,6.505 106.301626,17.975 L92.5946265,17.975 C92.1756265,13.48 89.6026265,11.115 84.9936265,11.115 C79.3676265,11.115 76.5546265,15.197 76.5546265,23.415 C76.5546265,31.458 79.6066265,35.656 85.4126265,35.656 C89.7816265,35.656 92.5346265,33.052 92.9556265,28.324 L106.541626,28.324 Z M159.393626,31.693 C160.111626,35.005 162.027626,36.187 165.976626,36.187 C169.447626,36.187 171.363626,34.945 171.363626,32.994 C171.363626,30.213 168.791626,29.978 163.463626,28.618 C157.238626,27.024 153.228626,25.662 151.372626,24.36 C147.901626,21.937 146.224626,18.507 146.224626,14.132 C146.224626,5.559 153.050626,0 164.959626,0 C176.511626,0 183.334626,5.027 184.112626,13.955 L170.525626,13.955 C170.047626,11.293 168.191626,10.052 164.720626,10.052 C161.666626,10.052 160.171626,11.057 160.171626,13.068 C160.171626,15.434 162.505626,15.848 166.814626,16.97 C172.380626,18.391 176.810626,19.276 179.624626,21.168 C183.574626,23.769 185.368626,26.963 185.368626,31.516 C185.368626,41.154 178.366626,46.771 165.379626,46.771 C153.348626,46.771 146.284626,41.154 145.386626,31.693 L159.393626,31.693 Z" id="Fill-2312"></path>
                <path d="M188.893426,46.7835 L188.893426,41.9975 L189.856426,41.9975 L191.514426,45.5675 L193.155426,41.9975 L194.101426,41.9975 L194.101426,46.7835 L193.264426,46.7835 L193.264426,43.4785 L191.750426,46.7835 L191.245426,46.7835 L189.745426,43.4935 L189.745426,46.7835 L188.893426,46.7835 Z M184.033426,42.7765 L184.033426,41.9975 L188.089426,41.9975 L188.089426,42.7765 L186.527426,42.7765 L186.527426,46.7835 L185.595426,46.7835 L185.595426,42.7765 L184.033426,42.7765 Z" id="Fill-2314"></path>
            </g>
        </g>
    </g>
</svg>