<?xml version="1.0" encoding="UTF-8"?>
<svg id="Layer_2" data-name="Layer 2" xmlns="http://www.w3.org/2000/svg" xmlns:xlink="http://www.w3.org/1999/xlink" viewBox="0 0 881.02 409.44">
  <defs>
    <style>
      .cls-1 {
        clip-path: url(#clippath);
      }

      .cls-2 {
        fill: none;
      }

      .cls-2, .cls-3 {
        stroke-width: 0px;
      }

      .cls-3 {
        fill: #cb122d;
      }
    </style>
    <clipPath id="clippath">
      <rect class="cls-2" width="881.02" height="409.44"/>
    </clipPath>
  </defs>
  <g id="Layer_1-2" data-name="Layer 1">
    <g class="cls-1">
      <g>
        <g>
          <circle class="cls-3" cx="423.63" cy="390.99" r=".84"/>
          <circle class="cls-3" cx="423.63" cy="357.22" r=".84"/>
          <circle class="cls-3" cx="423.63" cy="323.46" r=".84"/>
          <circle class="cls-3" cx="423.63" cy="289.69" r=".84"/>
          <circle class="cls-3" cx="423.63" cy="255.93" r=".84"/>
          <circle class="cls-3" cx="423.63" cy="222.16" r=".84"/>
          <circle class="cls-3" cx="423.63" cy="188.4" r=".84"/>
          <circle class="cls-3" cx="423.63" cy="154.63" r=".84"/>
          <circle class="cls-3" cx="423.63" cy="120.87" r=".84"/>
          <circle class="cls-3" cx="423.63" cy="87.1" r=".84"/>
          <circle class="cls-3" cx="423.63" cy="53.34" r=".84"/>
          <circle class="cls-3" cx="423.63" cy="19.57" r=".84"/>
          <circle class="cls-3" cx="457.39" cy="390.99" r=".84"/>
          <circle class="cls-3" cx="457.39" cy="357.22" r=".84"/>
          <circle class="cls-3" cx="457.39" cy="323.46" r=".84"/>
          <circle class="cls-3" cx="457.39" cy="289.69" r=".84"/>
          <circle class="cls-3" cx="457.39" cy="255.93" r=".84"/>
          <circle class="cls-3" cx="457.39" cy="222.16" r=".84"/>
          <circle class="cls-3" cx="457.39" cy="188.4" r=".84"/>
          <circle class="cls-3" cx="457.39" cy="154.63" r=".84"/>
          <circle class="cls-3" cx="457.39" cy="120.87" r=".84"/>
          <circle class="cls-3" cx="457.39" cy="87.1" r=".84"/>
          <circle class="cls-3" cx="457.39" cy="53.34" r=".84"/>
          <circle class="cls-3" cx="457.39" cy="19.57" r=".84"/>
          <circle class="cls-3" cx="491.16" cy="390.99" r=".84"/>
          <circle class="cls-3" cx="491.16" cy="357.22" r=".84"/>
          <circle class="cls-3" cx="491.16" cy="323.46" r=".84"/>
          <circle class="cls-3" cx="491.16" cy="289.69" r=".84"/>
          <circle class="cls-3" cx="491.16" cy="255.93" r=".84"/>
          <circle class="cls-3" cx="491.16" cy="222.16" r=".84"/>
          <circle class="cls-3" cx="491.16" cy="188.4" r=".84"/>
          <circle class="cls-3" cx="491.16" cy="154.63" r=".84"/>
          <circle class="cls-3" cx="491.16" cy="120.87" r=".84"/>
          <circle class="cls-3" cx="491.16" cy="87.1" r=".84"/>
          <circle class="cls-3" cx="491.16" cy="53.34" r=".84"/>
          <circle class="cls-3" cx="491.16" cy="19.57" r=".84"/>
          <circle class="cls-3" cx="524.92" cy="390.99" r=".84"/>
          <circle class="cls-3" cx="524.92" cy="357.22" r=".84"/>
          <circle class="cls-3" cx="524.92" cy="323.46" r=".84"/>
          <circle class="cls-3" cx="524.92" cy="289.69" r=".84"/>
          <circle class="cls-3" cx="524.92" cy="255.93" r=".84"/>
          <circle class="cls-3" cx="524.92" cy="222.16" r=".84"/>
          <circle class="cls-3" cx="524.92" cy="188.4" r=".84"/>
          <circle class="cls-3" cx="524.92" cy="154.63" r=".84"/>
          <circle class="cls-3" cx="524.92" cy="120.87" r=".84"/>
          <circle class="cls-3" cx="524.92" cy="87.1" r=".84"/>
          <circle class="cls-3" cx="524.92" cy="53.34" r=".84"/>
          <circle class="cls-3" cx="524.92" cy="19.57" r=".84"/>
          <circle class="cls-3" cx="558.69" cy="390.99" r=".84"/>
          <circle class="cls-3" cx="558.69" cy="357.22" r=".84"/>
          <circle class="cls-3" cx="558.69" cy="323.46" r=".84"/>
          <circle class="cls-3" cx="558.69" cy="289.69" r=".84"/>
          <circle class="cls-3" cx="558.69" cy="255.93" r=".84"/>
          <circle class="cls-3" cx="558.69" cy="222.16" r=".84"/>
          <circle class="cls-3" cx="558.69" cy="188.4" r=".84"/>
          <circle class="cls-3" cx="558.69" cy="154.63" r=".84"/>
          <circle class="cls-3" cx="558.69" cy="120.87" r=".84"/>
          <circle class="cls-3" cx="558.69" cy="87.1" r=".84"/>
          <circle class="cls-3" cx="558.69" cy="53.34" r=".84"/>
          <circle class="cls-3" cx="558.69" cy="19.57" r=".84"/>
          <circle class="cls-3" cx="592.45" cy="390.99" r=".84"/>
          <circle class="cls-3" cx="592.45" cy="357.22" r=".84"/>
          <circle class="cls-3" cx="592.45" cy="323.46" r=".84"/>
          <circle class="cls-3" cx="592.45" cy="289.69" r=".84"/>
          <circle class="cls-3" cx="592.45" cy="255.93" r=".84"/>
          <circle class="cls-3" cx="592.45" cy="222.16" r=".84"/>
          <circle class="cls-3" cx="592.45" cy="188.4" r=".84"/>
          <circle class="cls-3" cx="592.45" cy="154.63" r=".84"/>
          <circle class="cls-3" cx="592.45" cy="120.87" r=".84"/>
          <circle class="cls-3" cx="592.45" cy="87.1" r=".84"/>
          <circle class="cls-3" cx="592.45" cy="53.34" r=".84"/>
          <circle class="cls-3" cx="592.45" cy="19.57" r=".84"/>
          <circle class="cls-3" cx="626.22" cy="390.99" r=".84"/>
          <circle class="cls-3" cx="626.22" cy="357.22" r=".84"/>
          <circle class="cls-3" cx="626.22" cy="323.46" r=".84"/>
          <circle class="cls-3" cx="626.22" cy="289.69" r=".84"/>
          <circle class="cls-3" cx="626.22" cy="255.93" r=".84"/>
          <circle class="cls-3" cx="626.22" cy="222.16" r=".84"/>
          <circle class="cls-3" cx="626.22" cy="188.4" r=".84"/>
          <circle class="cls-3" cx="626.22" cy="154.63" r=".84"/>
          <circle class="cls-3" cx="626.22" cy="120.87" r=".84"/>
          <circle class="cls-3" cx="626.22" cy="87.1" r=".84"/>
          <circle class="cls-3" cx="626.22" cy="53.34" r=".84"/>
          <circle class="cls-3" cx="626.22" cy="19.57" r=".84"/>
          <circle class="cls-3" cx="659.98" cy="390.99" r=".84"/>
          <circle class="cls-3" cx="659.98" cy="357.22" r=".84"/>
          <circle class="cls-3" cx="659.98" cy="323.46" r=".84"/>
          <circle class="cls-3" cx="659.98" cy="289.69" r=".84"/>
          <circle class="cls-3" cx="659.98" cy="255.93" r=".84"/>
          <circle class="cls-3" cx="659.98" cy="222.16" r=".84"/>
          <circle class="cls-3" cx="659.98" cy="188.4" r=".84"/>
          <circle class="cls-3" cx="659.98" cy="154.63" r=".84"/>
          <circle class="cls-3" cx="659.98" cy="120.87" r=".84"/>
          <circle class="cls-3" cx="659.98" cy="87.1" r=".84"/>
          <circle class="cls-3" cx="659.98" cy="53.34" r=".84"/>
          <circle class="cls-3" cx="659.98" cy="19.57" r=".84"/>
          <circle class="cls-3" cx="693.75" cy="390.99" r=".84"/>
          <circle class="cls-3" cx="693.75" cy="357.22" r=".84"/>
          <circle class="cls-3" cx="693.75" cy="323.46" r=".84"/>
          <circle class="cls-3" cx="693.75" cy="289.69" r=".84"/>
          <circle class="cls-3" cx="693.75" cy="255.93" r=".84"/>
          <circle class="cls-3" cx="693.75" cy="222.16" r=".84"/>
          <circle class="cls-3" cx="693.75" cy="188.4" r=".84"/>
          <circle class="cls-3" cx="693.75" cy="154.63" r=".84"/>
          <circle class="cls-3" cx="693.75" cy="120.87" r=".84"/>
          <circle class="cls-3" cx="693.75" cy="87.1" r=".84"/>
          <circle class="cls-3" cx="693.75" cy="53.34" r=".84"/>
          <circle class="cls-3" cx="693.75" cy="19.57" r=".84"/>
          <circle class="cls-3" cx="727.51" cy="390.99" r=".84"/>
          <circle class="cls-3" cx="727.51" cy="357.22" r=".84"/>
          <circle class="cls-3" cx="727.51" cy="323.46" r=".84"/>
          <circle class="cls-3" cx="727.51" cy="289.69" r=".84"/>
          <circle class="cls-3" cx="727.51" cy="255.93" r=".84"/>
          <circle class="cls-3" cx="727.51" cy="222.16" r=".84"/>
          <circle class="cls-3" cx="727.51" cy="188.4" r=".84"/>
          <circle class="cls-3" cx="727.51" cy="154.63" r=".84"/>
          <circle class="cls-3" cx="727.51" cy="120.87" r=".84"/>
          <circle class="cls-3" cx="727.51" cy="87.1" r=".84"/>
          <circle class="cls-3" cx="727.51" cy="53.34" r=".84"/>
          <circle class="cls-3" cx="727.51" cy="19.57" r=".84"/>
          <circle class="cls-3" cx="761.28" cy="390.99" r=".84"/>
          <circle class="cls-3" cx="761.28" cy="357.22" r=".84"/>
          <circle class="cls-3" cx="761.28" cy="323.46" r=".84"/>
          <circle class="cls-3" cx="761.28" cy="289.69" r=".84"/>
          <circle class="cls-3" cx="761.28" cy="255.93" r=".84"/>
          <circle class="cls-3" cx="761.28" cy="222.16" r=".84"/>
          <circle class="cls-3" cx="761.28" cy="188.4" r=".84"/>
          <circle class="cls-3" cx="761.28" cy="154.63" r=".84"/>
          <circle class="cls-3" cx="761.28" cy="120.87" r=".84"/>
          <circle class="cls-3" cx="761.28" cy="87.1" r=".84"/>
          <circle class="cls-3" cx="761.28" cy="53.34" r=".84"/>
          <circle class="cls-3" cx="761.28" cy="19.57" r=".84"/>
          <circle class="cls-3" cx="795.04" cy="390.99" r=".84"/>
          <circle class="cls-3" cx="795.04" cy="357.22" r=".84"/>
          <circle class="cls-3" cx="795.04" cy="323.46" r=".84"/>
          <circle class="cls-3" cx="795.04" cy="289.69" r=".84"/>
          <circle class="cls-3" cx="795.04" cy="255.93" r=".84"/>
          <circle class="cls-3" cx="795.04" cy="222.16" r=".84"/>
          <circle class="cls-3" cx="795.04" cy="188.4" r=".84"/>
          <circle class="cls-3" cx="795.04" cy="154.63" r=".84"/>
          <circle class="cls-3" cx="795.04" cy="120.87" r=".84"/>
          <circle class="cls-3" cx="795.04" cy="87.1" r=".84"/>
          <circle class="cls-3" cx="795.04" cy="53.34" r=".84"/>
          <circle class="cls-3" cx="795.04" cy="19.57" r=".84"/>
          <circle class="cls-3" cx="828.81" cy="390.99" r=".84"/>
          <circle class="cls-3" cx="828.81" cy="357.22" r=".84"/>
          <circle class="cls-3" cx="828.81" cy="323.46" r=".84"/>
          <circle class="cls-3" cx="828.81" cy="289.69" r=".84"/>
          <circle class="cls-3" cx="828.81" cy="255.93" r=".84"/>
          <circle class="cls-3" cx="828.81" cy="222.16" r=".84"/>
          <circle class="cls-3" cx="828.81" cy="188.4" r=".84"/>
          <circle class="cls-3" cx="828.81" cy="154.63" r=".84"/>
          <circle class="cls-3" cx="828.81" cy="120.87" r=".84"/>
          <circle class="cls-3" cx="828.81" cy="87.1" r=".84"/>
          <circle class="cls-3" cx="828.81" cy="53.34" r=".84"/>
          <circle class="cls-3" cx="828.81" cy="19.57" r=".84"/>
          <circle class="cls-3" cx="862.57" cy="390.99" r=".84"/>
          <circle class="cls-3" cx="862.57" cy="357.22" r=".84"/>
          <circle class="cls-3" cx="862.57" cy="323.46" r=".84"/>
          <circle class="cls-3" cx="862.57" cy="289.69" r=".84"/>
          <circle class="cls-3" cx="862.57" cy="255.93" r=".84"/>
          <circle class="cls-3" cx="862.57" cy="222.16" r=".84"/>
          <circle class="cls-3" cx="862.57" cy="188.4" r=".84"/>
          <circle class="cls-3" cx="862.57" cy="154.63" r=".84"/>
          <circle class="cls-3" cx="862.57" cy="120.87" r=".84"/>
          <circle class="cls-3" cx="862.57" cy="87.1" r=".84"/>
          <circle class="cls-3" cx="862.57" cy="53.34" r=".84"/>
          <circle class="cls-3" cx="862.57" cy="19.57" r=".84"/>
        </g>
        <g>
          <circle class="cls-3" cx="18.45" cy="390.99" r=".84"/>
          <circle class="cls-3" cx="18.45" cy="357.22" r=".84"/>
          <circle class="cls-3" cx="18.45" cy="323.46" r=".84"/>
          <circle class="cls-3" cx="18.45" cy="289.69" r=".84"/>
          <circle class="cls-3" cx="18.45" cy="255.93" r=".84"/>
          <circle class="cls-3" cx="18.45" cy="222.16" r=".84"/>
          <circle class="cls-3" cx="18.45" cy="188.4" r=".84"/>
          <circle class="cls-3" cx="18.45" cy="154.63" r=".84"/>
          <circle class="cls-3" cx="18.45" cy="120.87" r=".84"/>
          <circle class="cls-3" cx="18.45" cy="87.1" r=".84"/>
          <circle class="cls-3" cx="18.45" cy="53.34" r=".84"/>
          <circle class="cls-3" cx="18.45" cy="19.57" r=".84"/>
          <circle class="cls-3" cx="52.22" cy="390.99" r=".84"/>
          <circle class="cls-3" cx="52.22" cy="357.22" r=".84"/>
          <circle class="cls-3" cx="52.22" cy="323.46" r=".84"/>
          <circle class="cls-3" cx="52.22" cy="289.69" r=".84"/>
          <circle class="cls-3" cx="52.22" cy="255.93" r=".84"/>
          <circle class="cls-3" cx="52.22" cy="222.16" r=".84"/>
          <circle class="cls-3" cx="52.22" cy="188.4" r=".84"/>
          <circle class="cls-3" cx="52.22" cy="154.63" r=".84"/>
          <circle class="cls-3" cx="52.22" cy="120.87" r=".84"/>
          <circle class="cls-3" cx="52.22" cy="87.1" r=".84"/>
          <circle class="cls-3" cx="52.22" cy="53.34" r=".84"/>
          <circle class="cls-3" cx="52.22" cy="19.57" r=".84"/>
          <circle class="cls-3" cx="85.98" cy="390.99" r=".84"/>
          <circle class="cls-3" cx="85.98" cy="357.22" r=".84"/>
          <circle class="cls-3" cx="85.98" cy="323.46" r=".84"/>
          <circle class="cls-3" cx="85.98" cy="289.69" r=".84"/>
          <circle class="cls-3" cx="85.98" cy="255.93" r=".84"/>
          <circle class="cls-3" cx="85.98" cy="222.16" r=".84"/>
          <circle class="cls-3" cx="85.98" cy="188.4" r=".84"/>
          <circle class="cls-3" cx="85.98" cy="154.63" r=".84"/>
          <circle class="cls-3" cx="85.98" cy="120.87" r=".84"/>
          <circle class="cls-3" cx="85.98" cy="87.1" r=".84"/>
          <circle class="cls-3" cx="85.98" cy="53.34" r=".84"/>
          <circle class="cls-3" cx="85.98" cy="19.57" r=".84"/>
          <circle class="cls-3" cx="119.75" cy="390.99" r=".84"/>
          <circle class="cls-3" cx="119.75" cy="357.22" r=".84"/>
          <circle class="cls-3" cx="119.75" cy="323.46" r=".84"/>
          <circle class="cls-3" cx="119.75" cy="289.69" r=".84"/>
          <circle class="cls-3" cx="119.75" cy="255.93" r=".84"/>
          <circle class="cls-3" cx="119.75" cy="222.16" r=".84"/>
          <circle class="cls-3" cx="119.75" cy="188.4" r=".84"/>
          <circle class="cls-3" cx="119.75" cy="154.63" r=".84"/>
          <circle class="cls-3" cx="119.75" cy="120.87" r=".84"/>
          <circle class="cls-3" cx="119.75" cy="87.1" r=".84"/>
          <circle class="cls-3" cx="119.75" cy="53.34" r=".84"/>
          <circle class="cls-3" cx="119.75" cy="19.57" r=".84"/>
          <circle class="cls-3" cx="153.51" cy="390.99" r=".84"/>
          <circle class="cls-3" cx="153.51" cy="357.22" r=".84"/>
          <circle class="cls-3" cx="153.51" cy="323.46" r=".84"/>
          <circle class="cls-3" cx="153.51" cy="289.69" r=".84"/>
          <circle class="cls-3" cx="153.51" cy="255.93" r=".84"/>
          <circle class="cls-3" cx="153.51" cy="222.16" r=".84"/>
          <circle class="cls-3" cx="153.51" cy="188.4" r=".84"/>
          <circle class="cls-3" cx="153.51" cy="154.63" r=".84"/>
          <circle class="cls-3" cx="153.51" cy="120.87" r=".84"/>
          <circle class="cls-3" cx="153.51" cy="87.1" r=".84"/>
          <circle class="cls-3" cx="153.51" cy="53.34" r=".84"/>
          <circle class="cls-3" cx="153.51" cy="19.57" r=".84"/>
          <circle class="cls-3" cx="187.28" cy="390.99" r=".84"/>
          <circle class="cls-3" cx="187.28" cy="357.22" r=".84"/>
          <circle class="cls-3" cx="187.28" cy="323.46" r=".84"/>
          <circle class="cls-3" cx="187.28" cy="289.69" r=".84"/>
          <circle class="cls-3" cx="187.28" cy="255.93" r=".84"/>
          <circle class="cls-3" cx="187.28" cy="222.16" r=".84"/>
          <circle class="cls-3" cx="187.28" cy="188.4" r=".84"/>
          <circle class="cls-3" cx="187.28" cy="154.63" r=".84"/>
          <circle class="cls-3" cx="187.28" cy="120.87" r=".84"/>
          <circle class="cls-3" cx="187.28" cy="87.1" r=".84"/>
          <circle class="cls-3" cx="187.28" cy="53.34" r=".84"/>
          <circle class="cls-3" cx="187.28" cy="19.57" r=".84"/>
          <circle class="cls-3" cx="221.04" cy="390.99" r=".84"/>
          <circle class="cls-3" cx="221.04" cy="357.22" r=".84"/>
          <circle class="cls-3" cx="221.04" cy="323.46" r=".84"/>
          <circle class="cls-3" cx="221.04" cy="289.69" r=".84"/>
          <circle class="cls-3" cx="221.04" cy="255.93" r=".84"/>
          <circle class="cls-3" cx="221.04" cy="222.16" r=".84"/>
          <circle class="cls-3" cx="221.04" cy="188.4" r=".84"/>
          <circle class="cls-3" cx="221.04" cy="154.63" r=".84"/>
          <circle class="cls-3" cx="221.04" cy="120.87" r=".84"/>
          <circle class="cls-3" cx="221.04" cy="87.1" r=".84"/>
          <circle class="cls-3" cx="221.04" cy="53.34" r=".84"/>
          <circle class="cls-3" cx="221.04" cy="19.57" r=".84"/>
          <circle class="cls-3" cx="254.81" cy="390.99" r=".84"/>
          <circle class="cls-3" cx="254.81" cy="357.22" r=".84"/>
          <circle class="cls-3" cx="254.81" cy="323.46" r=".84"/>
          <circle class="cls-3" cx="254.81" cy="289.69" r=".84"/>
          <circle class="cls-3" cx="254.81" cy="255.93" r=".84"/>
          <circle class="cls-3" cx="254.81" cy="222.16" r=".84"/>
          <circle class="cls-3" cx="254.81" cy="188.4" r=".84"/>
          <circle class="cls-3" cx="254.81" cy="154.63" r=".84"/>
          <circle class="cls-3" cx="254.81" cy="120.87" r=".84"/>
          <circle class="cls-3" cx="254.81" cy="87.1" r=".84"/>
          <circle class="cls-3" cx="254.81" cy="53.34" r=".84"/>
          <circle class="cls-3" cx="254.81" cy="19.57" r=".84"/>
          <circle class="cls-3" cx="288.57" cy="390.99" r=".84"/>
          <circle class="cls-3" cx="288.57" cy="357.22" r=".84"/>
          <circle class="cls-3" cx="288.57" cy="323.46" r=".84"/>
          <circle class="cls-3" cx="288.57" cy="289.69" r=".84"/>
          <circle class="cls-3" cx="288.57" cy="255.93" r=".84"/>
          <circle class="cls-3" cx="288.57" cy="222.16" r=".84"/>
          <circle class="cls-3" cx="288.57" cy="188.4" r=".84"/>
          <circle class="cls-3" cx="288.57" cy="154.63" r=".84"/>
          <circle class="cls-3" cx="288.57" cy="120.87" r=".84"/>
          <circle class="cls-3" cx="288.57" cy="87.1" r=".84"/>
          <circle class="cls-3" cx="288.57" cy="53.34" r=".84"/>
          <circle class="cls-3" cx="288.57" cy="19.57" r=".84"/>
          <circle class="cls-3" cx="322.34" cy="390.99" r=".84"/>
          <circle class="cls-3" cx="322.34" cy="357.22" r=".84"/>
          <circle class="cls-3" cx="322.34" cy="323.46" r=".84"/>
          <circle class="cls-3" cx="322.34" cy="289.69" r=".84"/>
          <circle class="cls-3" cx="322.34" cy="255.93" r=".84"/>
          <circle class="cls-3" cx="322.34" cy="222.16" r=".84"/>
          <circle class="cls-3" cx="322.34" cy="188.4" r=".84"/>
          <circle class="cls-3" cx="322.34" cy="154.63" r=".84"/>
          <circle class="cls-3" cx="322.34" cy="120.87" r=".84"/>
          <circle class="cls-3" cx="322.34" cy="87.1" r=".84"/>
          <circle class="cls-3" cx="322.34" cy="53.34" r=".84"/>
          <circle class="cls-3" cx="322.34" cy="19.57" r=".84"/>
          <circle class="cls-3" cx="356.1" cy="390.99" r=".84"/>
          <circle class="cls-3" cx="356.1" cy="357.22" r=".84"/>
          <circle class="cls-3" cx="356.1" cy="323.46" r=".84"/>
          <circle class="cls-3" cx="356.1" cy="289.69" r=".84"/>
          <circle class="cls-3" cx="356.1" cy="255.93" r=".84"/>
          <circle class="cls-3" cx="356.1" cy="222.16" r=".84"/>
          <circle class="cls-3" cx="356.1" cy="188.4" r=".84"/>
          <circle class="cls-3" cx="356.1" cy="154.63" r=".84"/>
          <circle class="cls-3" cx="356.1" cy="120.87" r=".84"/>
          <circle class="cls-3" cx="356.1" cy="87.1" r=".84"/>
          <circle class="cls-3" cx="356.1" cy="53.34" r=".84"/>
          <circle class="cls-3" cx="356.1" cy="19.57" r=".84"/>
          <circle class="cls-3" cx="389.86" cy="390.99" r=".84"/>
          <circle class="cls-3" cx="389.86" cy="357.22" r=".84"/>
          <circle class="cls-3" cx="389.86" cy="323.46" r=".84"/>
          <circle class="cls-3" cx="389.86" cy="289.69" r=".84"/>
          <circle class="cls-3" cx="389.86" cy="255.93" r=".84"/>
          <circle class="cls-3" cx="389.86" cy="222.16" r=".84"/>
          <circle class="cls-3" cx="389.86" cy="188.4" r=".84"/>
          <circle class="cls-3" cx="389.86" cy="154.63" r=".84"/>
          <circle class="cls-3" cx="389.86" cy="120.87" r=".84"/>
          <circle class="cls-3" cx="389.86" cy="87.1" r=".84"/>
          <circle class="cls-3" cx="389.86" cy="53.34" r=".84"/>
          <circle class="cls-3" cx="389.86" cy="19.57" r=".84"/>
          <circle class="cls-3" cx="423.63" cy="390.99" r=".84"/>
          <circle class="cls-3" cx="423.63" cy="357.22" r=".84"/>
          <circle class="cls-3" cx="423.63" cy="323.46" r=".84"/>
          <circle class="cls-3" cx="423.63" cy="289.69" r=".84"/>
          <circle class="cls-3" cx="423.63" cy="255.93" r=".84"/>
          <circle class="cls-3" cx="423.63" cy="222.16" r=".84"/>
          <circle class="cls-3" cx="423.63" cy="188.4" r=".84"/>
          <circle class="cls-3" cx="423.63" cy="154.63" r=".84"/>
          <circle class="cls-3" cx="423.63" cy="120.87" r=".84"/>
          <circle class="cls-3" cx="423.63" cy="87.1" r=".84"/>
          <circle class="cls-3" cx="423.63" cy="53.34" r=".84"/>
          <circle class="cls-3" cx="423.63" cy="19.57" r=".84"/>
        </g>
      </g>
    </g>
  </g>
</svg>