<svg width="19" height="19" viewBox="0 0 19 19" fill="none" xmlns="http://www.w3.org/2000/svg">
<path d="M11.3976 1.17974L0.940656 11.682C0.843189 11.7824 0.780634 11.9117 0.762047 12.0508L0.0210522 17.2726C-0.00546755 17.4609 0.0511985 17.6514 0.175866 17.7944C0.300756 17.9374 0.481636 18.0184 0.670899 18.0166H0.752046L6.03245 17.3639H6.03267C6.17637 17.3462 6.31032 17.2808 6.41277 17.1779L16.8564 6.66286C17.5924 5.93843 18.0094 4.94844 18.0146 3.91329C18.0198 2.87839 17.6127 1.88429 16.884 1.15237C16.1553 0.420285 15.1655 0.0114064 14.1348 0.0166514C13.1041 0.0218873 12.1186 0.440757 11.3971 1.18017L11.3976 1.17974ZM5.63642 16.0779L1.41206 16.6065L2.00341 12.4487L11.0398 3.38244L14.6631 7.02118L5.63642 16.0779ZM15.9373 5.73882L15.5798 6.09784L11.9597 2.46228L12.3172 2.10328C12.9693 1.4825 13.8977 1.2505 14.7635 1.49182C15.6292 1.73313 16.3058 2.41244 16.5461 3.28207C16.7863 4.15145 16.5554 5.08389 15.9373 5.73882Z" fill="#33312C"/>
</svg>
