<svg width="32" height="32" viewBox="0 0 32 32" fill="none" xmlns="http://www.w3.org/2000/svg">
<path d="M13.7197 5.14663L2.42633 24C2.19349 24.4032 2.07028 24.8604 2.06898 25.326C2.06768 25.7916 2.18832 26.2495 2.4189 26.654C2.64948 27.0585 2.98196 27.3956 3.38327 27.6318C3.78458 27.8679 4.24073 27.9949 4.70633 28H27.293C27.7586 27.9949 28.2147 27.8679 28.6161 27.6318C29.0174 27.3956 29.3498 27.0585 29.5804 26.654C29.811 26.2495 29.9316 25.7916 29.9303 25.326C29.929 24.8604 29.8058 24.4032 29.573 24L18.2797 5.14663C18.042 4.75478 17.7073 4.43079 17.3079 4.20595C16.9086 3.9811 16.458 3.86298 15.9997 3.86298C15.5413 3.86298 15.0908 3.9811 14.6914 4.20595C14.292 4.43079 13.9574 4.75478 13.7197 5.14663V5.14663Z" stroke="#F4502E" stroke-width="2" stroke-linecap="round" stroke-linejoin="round"/>
<path d="M16 12V17.3333" stroke="#F4502E" stroke-width="2" stroke-linecap="round" stroke-linejoin="round"/>
<path d="M16 22.6667H16.0133" stroke="#F4502E" stroke-width="2" stroke-linecap="round" stroke-linejoin="round"/>
</svg>
