<svg width="300" height="300" viewBox="0 0 300 300" fill="none" xmlns="http://www.w3.org/2000/svg">
<path d="M149.986 296.455C230.879 296.455 296.455 230.879 296.455 149.986C296.455 69.0924 230.879 3.51562 149.986 3.51562C69.0924 3.51562 3.51562 69.0924 3.51562 149.986C3.51562 230.879 69.0924 296.455 149.986 296.455Z" fill="black"/>
<path fill-rule="evenodd" clip-rule="evenodd" d="M172.524 119.43H244.257C244.65 119.43 244.875 119.208 244.974 119.075C245.078 118.941 245.232 118.66 245.125 118.279L240.653 102.343C239.511 98.2757 235.764 95.4348 231.541 95.4348L162.386 95.4343C165.225 97.8438 167.378 101.081 168.432 104.834L172.524 119.43ZM68.4619 95.4343C64.2355 95.4343 60.4884 98.2759 59.3465 102.343L54.8743 118.284C54.7672 118.659 54.9217 118.939 55.0248 119.072C55.1241 119.206 55.3539 119.431 55.7427 119.431L126.793 119.43C127.194 119.43 127.555 119.157 127.666 118.765L131.575 104.834C132.63 101.08 134.779 97.8447 137.621 95.4348L68.4619 95.4343ZM55.7428 123.998C54.0139 123.998 52.4239 123.208 51.3812 121.831C50.3384 120.453 50.0094 118.711 50.4772 117.049L54.9498 101.109C56.6429 95.0792 62.1974 90.8672 68.4619 90.8672L231.541 90.8667C237.802 90.8667 243.361 95.0789 245.05 101.109L249.526 117.049C249.99 118.72 249.657 120.464 248.614 121.838C247.571 123.211 245.981 123.998 244.257 123.998L170.791 123.998C169.768 123.998 168.868 123.316 168.595 122.331L164.035 106.068C162.275 99.8073 156.506 95.4348 150.003 95.4348C143.501 95.4342 137.732 99.808 135.971 106.069L132.058 120.005C131.392 122.359 129.227 123.998 126.793 123.998L55.7428 123.998Z" fill="white"/>
<path fill-rule="evenodd" clip-rule="evenodd" d="M150 209.133C149.897 209.133 149.794 209.127 149.691 209.113L76.5665 199.16C72.7089 198.638 69.7983 195.305 69.7983 191.408L69.7985 121.714C69.7985 120.452 70.8212 119.431 72.0821 119.431C73.3432 119.43 74.3659 120.453 74.3659 121.714L74.3661 191.408C74.3661 193.03 75.5751 194.417 77.1808 194.634L150 204.545L222.815 194.634C224.421 194.414 225.63 193.027 225.63 191.408L225.63 121.714C225.63 120.453 226.653 119.431 227.914 119.431C229.175 119.43 230.198 120.453 230.198 121.715L230.198 191.408C230.198 195.298 227.291 198.631 223.433 199.16L150.305 209.113C150.206 209.126 150.103 209.134 150 209.133Z" fill="white"/>
<path fill-rule="evenodd" clip-rule="evenodd" d="M150 209.133C148.74 209.133 147.716 208.112 147.716 206.85V93.1505C147.716 91.889 148.739 90.8672 150 90.8672C151.261 90.8667 152.284 91.8899 152.284 93.151V206.849C152.284 208.111 151.261 209.134 150 209.133Z" fill="white"/>
<path fill-rule="evenodd" clip-rule="evenodd" d="M92.6522 189.666C92.5411 189.666 92.4257 189.659 92.3108 189.642L83.8142 188.368C82.5652 188.181 81.7088 187.019 81.8951 185.771C82.0816 184.523 83.243 183.665 84.492 183.851L92.9888 185.124C94.2378 185.311 95.0941 186.474 94.9077 187.722C94.7413 188.854 93.7658 189.667 92.6522 189.666Z" fill="white"/>
<path fill-rule="evenodd" clip-rule="evenodd" d="M93.1118 179.828C92.9967 179.828 92.8853 179.82 92.7704 179.802L84.2696 178.528C83.0247 178.342 82.1644 177.18 82.3505 175.932C82.5372 174.684 83.7028 173.824 84.9476 174.012L93.4445 175.285C94.6934 175.472 95.5537 176.635 95.3673 177.883C95.1969 179.014 94.2215 179.828 93.1118 179.828Z" fill="white"/>
</svg>
