<svg width="36" height="36" viewBox="0 0 36 36" fill="none" xmlns="http://www.w3.org/2000/svg">
<rect width="36" height="36" rx="18" transform="matrix(-1 0 0 1 36 0)" fill="#D42D1F"/>
<path d="M22.6571 19.0008H10.9292C10.3769 19.0008 9.92915 18.553 9.92915 18.0008C9.92915 17.4485 10.3769 17.0008 10.9292 17.0008H22.6571L17.2931 11.6368C16.9026 11.2463 16.9026 10.6131 17.2931 10.2226C17.6836 9.83206 18.3168 9.83206 18.7073 10.2226L25.7783 17.2935C25.8741 17.3894 25.9466 17.5 25.9954 17.618C26.0439 17.735 26.0709 17.8633 26.0713 17.9978C26.0713 17.9998 26.0713 18.0018 26.0713 18.0038C26.0705 18.2776 25.9596 18.5256 25.7805 18.7057C25.7798 18.7064 25.7791 18.7072 25.7784 18.7079L18.7073 25.7789C18.3168 26.1695 17.6836 26.1695 17.2931 25.7789C16.9026 25.3884 16.9026 24.7552 17.2931 24.3647L22.6571 19.0008Z" fill="white"/>
</svg>
