<svg width="23" height="22" viewBox="0 0 23 22" fill="none" xmlns="http://www.w3.org/2000/svg">
<g id="Group 63359261">
<path id="Vector" d="M0 21.2138C0 21.6469 0.354012 22 0.78806 22C1.22211 22 1.57612 21.6468 1.57612 21.2138C1.57612 19.0473 3.34465 17.2831 5.51642 17.2831H11.1006L7.71598 20.6595C7.56667 20.8085 7.48356 21.005 7.48356 21.2138C7.48356 21.4227 7.56668 21.6223 7.71598 21.7682C7.8545 21.9064 8.05921 21.9877 8.27164 21.9877C8.48404 21.9877 8.68876 21.9094 8.8273 21.7682L12.2119 18.3917C12.7199 17.885 13 17.2125 13 16.4939C13 15.7753 12.7199 15.1027 12.2119 14.596L8.8273 11.2196C8.68877 11.0814 8.48406 11 8.27164 11C8.05923 11 7.85452 11.0783 7.71598 11.2196C7.56667 11.3685 7.48356 11.5651 7.48356 11.7785C7.48356 11.9904 7.56668 12.1869 7.71598 12.3328L11.1006 15.7093H5.51642C2.47498 15.7093 0 18.1783 0 21.2124V21.2138Z" fill="#D42D1F"/>
<path id="Vector_2" d="M19.1404 0H4.85965C2.73233 0 1 1.74545 1 3.88889V10.5C1 10.9284 1.34677 11.2778 1.77193 11.2778C2.19709 11.2778 2.54386 10.9284 2.54386 10.5V3.88889C2.54386 2.60221 3.58265 1.55556 4.85965 1.55556H19.1404C20.4174 1.55556 21.4561 2.60221 21.4561 3.88889V17.1111C21.4561 18.3978 20.4174 19.4444 19.1404 19.4444H17.2105C16.7853 19.4444 16.4386 19.7938 16.4386 20.2222C16.4386 20.6506 16.7854 21 17.2105 21H19.1404C21.2677 21 23 19.2546 23 17.1111V3.88889C23 1.74545 21.2677 0 19.1404 0Z" fill="#D42D1F"/>
</g>
</svg>
