<svg width="20" height="18" viewBox="0 0 20 18" fill="none" xmlns="http://www.w3.org/2000/svg">
<path d="M0 17.3571C0 17.7112 0.288784 18 0.642857 18C0.99693 18 1.28571 17.7112 1.28571 17.3571C1.28571 15.5855 2.72838 14.1428 4.5 14.1428H9.05529L6.29428 16.9038C6.17249 17.0256 6.10469 17.1864 6.10469 17.3571C6.10469 17.5279 6.17249 17.6911 6.29428 17.8104C6.40728 17.9234 6.57427 17.99 6.74756 17.99C6.92083 17.99 7.08782 17.9259 7.20084 17.8104L9.96185 15.0494C10.3762 14.635 10.6047 14.0851 10.6047 13.4975C10.6047 12.9099 10.3762 12.3599 9.96185 11.9456L7.20084 9.18461C7.08784 9.07161 6.92084 9.00507 6.74756 9.00507C6.57429 9.00507 6.40729 9.0691 6.29428 9.18461C6.17249 9.30641 6.10469 9.46712 6.10469 9.64165C6.10469 9.81492 6.17249 9.97565 6.29428 10.0949L9.05529 12.8559H4.5C2.01896 12.8559 0 14.8749 0 17.3559V17.3571Z" fill="#33312C"/>
<path d="M16.0713 0H4.1784C2.40678 0 0.964111 1.44267 0.964111 3.21429V8.67857C0.964111 9.03266 1.2529 9.32143 1.60697 9.32143C1.96104 9.32143 2.24983 9.03265 2.24983 8.67857V3.21429C2.24983 2.15081 3.11492 1.28571 4.1784 1.28571H16.0713C17.1347 1.28571 17.9998 2.15081 17.9998 3.21429V14.1429C17.9998 15.2063 17.1347 16.0714 16.0713 16.0714H14.4641C14.11 16.0714 13.8213 16.3602 13.8213 16.7143C13.8213 17.0684 14.11 17.3571 14.4641 17.3571H16.0713C17.8429 17.3571 19.2855 15.9145 19.2855 14.1429V3.21429C19.2855 1.44267 17.8429 0 16.0713 0Z" fill="#33312C"/>
</svg>
