<svg width="88" height="88" viewBox="0 0 88 88" fill="none" xmlns="http://www.w3.org/2000/svg">
<path d="M62.857 12.5713H31.0151L37.3024 21.9999H12.5713V87.9999H66.1774L62.5836 85.8439C56.9359 82.4559 53.4284 76.2597 53.4284 69.6739V43.9999H63.0314C64.4881 43.9999 65.9449 43.6557 67.2491 43.0036L72.2856 40.4861L75.4284 42.0576V25.1427L62.857 12.5713Z" fill="#F0F0F0"/>
<path d="M25.1431 28.2861H34.5716V37.7147H25.1431V28.2861Z" fill="#FAB400"/>
<path d="M25.1431 40.8574H34.5716V50.286H25.1431V40.8574Z" fill="#FAB400"/>
<path d="M25.1431 53.4287H34.5716V62.8573H25.1431V53.4287Z" fill="#FAB400"/>
<path d="M25.1431 66H34.5716V75.4286H25.1431V66Z" fill="#FAB400"/>
<path d="M37.7144 34.5713H62.8572V37.7141H37.7144V34.5713Z" fill="#D2D2D2"/>
<path d="M37.7144 47.1426H53.4286V50.2854H37.7144V47.1426Z" fill="#D2D2D2"/>
<path d="M37.7144 59.7139H53.4286V62.8567H37.7144V59.7139Z" fill="#D2D2D2"/>
<path d="M37.7144 75.429H54.3778C54.0462 74.406 53.7759 73.361 53.6235 72.2861H37.7144V75.429Z" fill="#D2D2D2"/>
<path d="M62.8569 12.5713V25.1427H75.4284L62.8569 12.5713Z" fill="#D2D2D2"/>
<path d="M56.5713 47.1429H63.0314C64.9831 47.1429 66.9081 46.6887 68.654 45.815L72.2856 44L75.9171 45.815C77.663 46.6887 79.588 47.1429 81.5397 47.1429H87.9999V69.674C87.9999 75.1944 85.1037 80.3094 80.3706 83.149L72.2856 88L64.2006 83.149C59.4674 80.3094 56.5713 75.1944 56.5713 69.674V47.1429Z" fill="#3CC8B4"/>
<path d="M67.3434 83.1487C62.6103 80.3091 59.7141 75.1942 59.7141 69.6737V47.1426H56.5713V69.6737C56.5713 75.1942 59.4674 80.3091 64.2006 83.1487L72.2856 87.9997L73.857 87.0569L67.3434 83.1487Z" fill="#1EAA96"/>
<path d="M80.143 62.8567L70.7144 72.2853L64.4287 65.9996L67.5716 62.8567L70.7144 65.9996L77.0001 59.7139L80.143 62.8567Z" fill="#F0F0F0"/>
<path d="M12.5713 22H18.857V88H12.5713V22Z" fill="#D2D2D2"/>
<path d="M0 0H31.4286L25.1429 9.42857L31.4286 18.8571H0V0Z" fill="#FA6450"/>
<path d="M0 0H3.14286V18.8571H0V0Z" fill="#DC4632"/>
<path d="M7.85707 11.0003C6.98964 11.0003 6.28564 10.2963 6.28564 9.42885C6.28564 8.56142 6.98964 7.85742 7.85707 7.85742C8.7245 7.85742 9.4285 8.56142 9.4285 9.42885C9.4285 10.2963 8.7245 11.0003 7.85707 11.0003Z" fill="#F0F0F0"/>
<path d="M14.1427 11.0003C13.2753 11.0003 12.5713 10.2963 12.5713 9.42885C12.5713 8.56142 13.2753 7.85742 14.1427 7.85742C15.0101 7.85742 15.7141 8.56142 15.7141 9.42885C15.7141 10.2963 15.0101 11.0003 14.1427 11.0003Z" fill="#F0F0F0"/>
<path d="M20.4284 11.0003C19.5609 11.0003 18.8569 10.2963 18.8569 9.42885C18.8569 8.56142 19.5609 7.85742 20.4284 7.85742C21.2958 7.85742 21.9998 8.56142 21.9998 9.42885C21.9998 10.2963 21.2958 11.0003 20.4284 11.0003Z" fill="#F0F0F0"/>
</svg>
