<svg width="100" height="100" viewBox="0 0 100 100" fill="none" xmlns="http://www.w3.org/2000/svg">
<g clip-path="url(#clip0_2960_19872)">
<path d="M70.7031 0H29.2969C13.1167 0 0 13.1167 0 29.2969V70.7031C0 86.8833 13.1167 100 29.2969 100H70.7031C86.8833 100 100 86.8833 100 70.7031V29.2969C100 13.1167 86.8833 0 70.7031 0Z" fill="#F4502E"/>
<path d="M51.1719 12.1094C45.7793 12.1094 41.4062 16.4824 41.4062 21.875C41.4062 27.2676 45.7793 31.6406 51.1719 31.6406C56.5645 31.6406 60.9375 27.2676 60.9375 21.875C60.9375 16.4824 56.5645 12.1094 51.1719 12.1094ZM51.1719 29.6875C46.8633 29.6875 43.3594 26.1836 43.3594 21.875C43.3594 17.5664 46.8633 14.0625 51.1719 14.0625C55.4805 14.0625 58.9844 17.5664 58.9844 21.875C58.9844 26.1836 55.4805 29.6875 51.1719 29.6875ZM36.9473 23.9648C33.3613 20.3809 27.5488 20.3809 23.9648 23.9648C20.3809 27.5488 20.3809 33.3613 23.9648 36.9473C27.5488 40.5312 33.3613 40.5312 36.9473 36.9473C40.5312 33.3613 40.5312 27.5488 36.9473 23.9648ZM35.5664 35.5664C34.2012 36.9316 32.3867 37.6816 30.4551 37.6816C28.5234 37.6816 26.7109 36.9316 25.3457 35.5664C23.9805 34.2012 23.2285 32.3867 23.2285 30.4551C23.2285 28.5234 23.9805 26.7109 25.3457 25.3457C26.7109 23.9805 28.5254 23.2285 30.4551 23.2285C32.3848 23.2285 34.2012 23.9805 35.5664 25.3457C38.3828 28.1641 38.3828 32.748 35.5664 35.5664ZM21.875 42.5781C17.1289 42.5781 13.2812 46.4258 13.2812 51.1719C13.2812 55.918 17.1289 59.7656 21.875 59.7656C26.6211 59.7656 30.4688 55.918 30.4688 51.1719C30.4688 46.4258 26.6211 42.5781 21.875 42.5781ZM21.875 57.8125C18.2129 57.8125 15.2344 54.834 15.2344 51.1719C15.2344 47.5098 18.2129 44.5312 21.875 44.5312C25.5371 44.5312 28.5156 47.5098 28.5156 51.1719C28.5156 54.834 25.5371 57.8125 21.875 57.8125ZM36.1191 66.2246C32.9902 63.0977 27.9199 63.0977 24.793 66.2246C21.666 69.3535 21.666 74.4238 24.793 77.5508C27.9199 80.6777 32.9902 80.6777 36.1191 77.5508C39.2461 74.4238 39.2461 69.3535 36.1191 66.2246ZM34.7363 76.1699C33.5938 77.3125 32.0723 77.9434 30.4551 77.9434C28.8379 77.9434 27.3184 77.3125 26.1738 76.1699C23.8145 73.8086 23.8145 69.9668 26.1738 67.6074C27.3184 66.4629 28.8379 65.834 30.4551 65.834C32.0723 65.834 33.5938 66.4629 34.7363 67.6074C35.8809 68.75 36.5098 70.2715 36.5098 71.8887C36.5098 73.5059 35.8809 75.0254 34.7363 76.1699ZM51.1719 73.0469C47.0723 73.0469 43.75 76.3691 43.75 80.4688C43.75 84.5684 47.0723 87.8906 51.1719 87.8906C55.2715 87.8906 58.5938 84.5684 58.5938 80.4688C58.5938 76.3691 55.2715 73.0469 51.1719 73.0469ZM51.1719 85.9375C48.1562 85.9375 45.7031 83.4844 45.7031 80.4688C45.7031 77.4531 48.1562 75 51.1719 75C54.1875 75 56.6406 77.4531 56.6406 80.4688C56.6406 83.4844 54.1875 85.9375 51.1719 85.9375ZM76.7207 67.0547C74.0527 64.3848 69.7246 64.3848 67.0547 67.0547C64.3848 69.7246 64.3848 74.0527 67.0547 76.7207C69.7246 79.3906 74.0527 79.3906 76.7207 76.7207C79.3906 74.0527 79.3906 69.7246 76.7207 67.0547ZM75.3398 75.3398C74.418 76.2637 73.1914 76.7715 71.8887 76.7715C70.5859 76.7715 69.3574 76.2637 68.4356 75.3398C67.5137 74.418 67.0059 73.1914 67.0059 71.8887C67.0059 70.5859 67.5137 69.3574 68.4356 68.4356C69.3574 67.5137 70.584 67.0059 71.8887 67.0059C73.1934 67.0059 74.418 67.5137 75.3398 68.4356C76.2637 69.3574 76.7715 70.584 76.7715 71.8887C76.7715 73.1934 76.2637 74.418 75.3398 75.3398ZM80.4688 44.9219C77.0176 44.9219 74.2188 47.7207 74.2188 51.1719C74.2188 54.623 77.0176 57.4219 80.4688 57.4219C83.9199 57.4219 86.7188 54.623 86.7188 51.1719C86.7188 47.7207 83.9199 44.9219 80.4688 44.9219ZM80.4688 55.4688C78.0996 55.4688 76.1719 53.541 76.1719 51.1719C76.1719 48.8027 78.0996 46.875 80.4688 46.875C82.8379 46.875 84.7656 48.8027 84.7656 51.1719C84.7656 53.541 82.8379 55.4688 80.4688 55.4688ZM75.8926 26.4512C73.6816 24.2383 70.0957 24.2383 67.8828 26.4512C65.6699 28.6621 65.6699 32.248 67.8828 34.4609C70.0957 36.6738 73.6816 36.6738 75.8926 34.4609C78.1055 32.248 78.1055 28.6621 75.8926 26.4512ZM74.5117 33.0801C73.8105 33.7812 72.8789 34.166 71.8887 34.166C70.8984 34.166 69.9648 33.7812 69.2637 33.0801C68.5625 32.3789 68.1777 31.4473 68.1777 30.4551C68.1777 29.4629 68.5625 28.5332 69.2637 27.832C69.9648 27.1309 70.8965 26.7441 71.8887 26.7441C72.8809 26.7441 73.8105 27.1309 74.5117 27.832C75.2129 28.5332 75.5996 29.4648 75.5996 30.4551C75.5996 31.4453 75.2129 32.3789 74.5117 33.0801Z" fill="white"/>
</g>
<defs>
<clipPath id="clip0_2960_19872">
<rect width="100" height="100" fill="white"/>
</clipPath>
</defs>
</svg>
