<?xml version="1.0" encoding="UTF-8"?>
<svg id="Layer_2" data-name="Layer 2" xmlns="http://www.w3.org/2000/svg" viewBox="0 0 454.75 383.22">
  <defs>
    <style>
      .cls-1, .cls-2 {
        stroke-linecap: round;
      }

      .cls-1, .cls-2, .cls-3, .cls-4 {
        stroke: #cb122d;
        stroke-linejoin: round;
        stroke-width: 4px;
      }

      .cls-1, .cls-5 {
        fill: #cb122d;
      }

      .cls-2, .cls-4 {
        fill: #fff;
      }

      .cls-3 {
        fill: none;
      }

      .cls-5 {
        stroke-width: 0px;
      }
    </style>
  </defs>
  <g id="Layer_1-2" data-name="Layer 1">
    <g>
      <g>
        <polygon class="cls-4" points="256.08 351.92 256.08 176.96 407.6 89.48 407.6 264.44 256.08 351.92"/>
        <polygon class="cls-4" points="256.08 2 407.6 89.48 256.08 176.96 104.56 89.48 256.08 2"/>
        <polygon class="cls-4" points="256.08 351.92 256.08 176.96 104.56 89.48 104.56 264.44 256.08 351.92"/>
        <polygon class="cls-1" points="354.07 58.58 203.09 145.74 203.09 205.02 157.4 179.39 157.55 120.7 309.61 32.9 354.07 58.58"/>
        <polygon class="cls-1" points="295.64 283.4 295.64 199.8 368.04 158 368.04 241.6 295.64 283.4"/>
        <line class="cls-2" x1="295.64" y1="180.44" x2="368.04" y2="138.65"/>
        <line class="cls-2" x1="164.38" y1="275.99" x2="118.68" y2="250.37"/>
        <line class="cls-2" x1="147.65" y1="250.37" x2="118.68" y2="234.13"/>
      </g>
      <g>
        <line class="cls-3" x1="441.66" y1="92.95" x2="441.66" y2="259.71"/>
        <polygon class="cls-5" points="428.58 103.55 430.92 105.74 441.66 94.18 452.4 105.74 454.75 103.55 441.66 89.48 428.58 103.55"/>
        <polygon class="cls-5" points="428.58 249.11 430.92 246.93 441.66 258.48 452.4 246.93 454.75 249.11 441.66 263.18 428.58 249.11"/>
      </g>
      <g>
        <line class="cls-3" x1="275.09" y1="377.18" x2="419.51" y2="293.8"/>
        <polygon class="cls-5" points="290.81 383.22 291.53 380.1 276.15 376.57 280.79 361.49 277.73 360.55 272.08 378.92 290.81 383.22"/>
        <polygon class="cls-5" points="416.87 310.44 413.8 309.5 418.44 294.42 403.06 290.9 403.78 287.77 422.51 292.07 416.87 310.44"/>
      </g>
      <line class="cls-2" x1="104.14" y1="126.58" x2="2" y2="126.58"/>
      <rect class="cls-1" x="2" y="142.82" width="42.5" height="11.28"/>
      <rect class="cls-1" x="2" y="162.85" width="77.85" height="11.28"/>
      <rect class="cls-1" x="2" y="182.88" width="61.91" height="11.28"/>
    </g>
  </g>
</svg>