<svg width="89" height="88" viewBox="0 0 89 88" fill="none" xmlns="http://www.w3.org/2000/svg">
<g clip-path="url(#clip0_694_6682)">
<path d="M0.500977 21.3828L10.6189 0H78.3817L88.4993 21.3828L47.9242 33.2351" fill="#E9BB91"/>
<path d="M88.4993 21.3838H0.500977V88.0003H88.4993V21.3838Z" fill="#CA936C"/>
<path d="M51.4254 21.3836V39.8759H37.5737V21.3836L39.1666 0H49.8325L51.4254 21.3836Z" fill="#764F43"/>
<path d="M51.4249 69.5059H37.5732V87.9981H51.4249V69.5059Z" fill="#764F43"/>
<path d="M37.5742 21.3828L39.167 0H49.8333L51.4261 21.3828" fill="#8E6459"/>
<path d="M8.4516 66.4727L10.6839 64.2404V74.9002C10.6839 75.6441 11.2868 76.2472 12.0308 76.2472C12.7749 76.2472 13.3778 75.6441 13.3778 74.9002V64.2404L15.6099 66.4725C15.873 66.7356 16.2176 66.8671 16.5624 66.8671C16.907 66.8671 17.2518 66.7356 17.5149 66.4725C18.041 65.9466 18.041 65.0936 17.5149 64.5678L12.9835 60.0362C12.7309 59.7836 12.3883 59.6416 12.031 59.6416C11.6739 59.6416 11.3313 59.7834 11.0785 60.0362L6.54692 64.5678C6.02082 65.0937 6.02082 65.9467 6.54692 66.4725C7.07268 66.9986 7.9255 66.9988 8.4516 66.4727Z" fill="#764F43"/>
<path d="M21.9204 66.4725L24.1525 64.2404V74.9002C24.1525 75.6441 24.7554 76.2472 25.4994 76.2472C26.2435 76.2472 26.8464 75.6441 26.8464 74.9002V64.2404L29.0785 66.4725C29.3416 66.7356 29.6862 66.8671 30.031 66.8671C30.3756 66.8671 30.7204 66.7356 30.9835 66.4725C31.5096 65.9466 31.5096 65.0936 30.9835 64.5678L26.4521 60.0362C26.1995 59.7836 25.8569 59.6416 25.4996 59.6416C25.1423 59.6416 24.7999 59.7834 24.5471 60.0362L20.0157 64.5678C19.4896 65.0937 19.4896 65.9467 20.0157 66.4725C20.5416 66.9984 21.3943 66.9984 21.9204 66.4725Z" fill="#764F43"/>
<path d="M29.9438 78.2227H7.58622C6.84219 78.2227 6.23926 78.8258 6.23926 79.5696C6.23926 80.3135 6.84219 80.9166 7.58622 80.9166H29.9437C30.6877 80.9166 31.2906 80.3135 31.2906 79.5696C31.2906 78.8258 30.6879 78.2227 29.9438 78.2227Z" fill="#764F43"/>
<path d="M81.7735 30.541H57.8003V49.1285H81.7735V30.541Z" fill="#F5FFFF"/>
<path d="M76.7463 37.9547H63.0086C62.2645 37.9547 61.6616 37.3516 61.6616 36.6077C61.6616 35.8638 62.2645 35.2607 63.0086 35.2607H76.7463C77.4903 35.2607 78.0933 35.8638 78.0933 36.6077C78.0933 37.3516 77.4903 37.9547 76.7463 37.9547Z" fill="#764F43"/>
<path d="M76.7463 44.4088H63.0086C62.2645 44.4088 61.6616 43.8057 61.6616 43.0618C61.6616 42.3179 62.2645 41.7148 63.0086 41.7148H76.7463C77.4903 41.7148 78.0933 42.3179 78.0933 43.0618C78.0933 43.8057 77.4903 44.4088 76.7463 44.4088Z" fill="#764F43"/>
</g>
<defs>
<clipPath id="clip0_694_6682">
<rect width="88" height="88" fill="white" transform="translate(0.5)"/>
</clipPath>
</defs>
</svg>
