<svg width="38" height="38" viewBox="0 0 38 38" fill="none" xmlns="http://www.w3.org/2000/svg">
<path d="M22.5157 2.89101C22.2204 2.42695 21.7634 2.11054 21.222 1.99101C20.6876 1.87148 20.1321 1.96992 19.6751 2.26523C19.2181 2.56054 18.8946 3.01757 18.7821 3.55898C18.6907 3.98789 18.7329 4.42382 18.9016 4.81757C16.2087 9.82382 12.8899 14.0988 9.03681 17.5371C8.80477 17.3473 8.53055 17.2137 8.22821 17.1504C7.72196 17.0379 7.20868 17.1293 6.77977 17.4105L3.2079 19.6957C2.77899 19.9699 2.47665 20.3988 2.36415 20.9051C2.25165 21.4113 2.34305 21.9246 2.6243 22.3535L2.96884 22.8879L1.77352 23.6684C1.40087 23.9074 1.14071 24.2801 1.04227 24.723C0.943836 25.159 1.02821 25.609 1.26727 25.9816L3.47509 29.4269C3.79149 29.9262 4.3329 30.2004 4.88837 30.2004C5.19774 30.2004 5.50712 30.116 5.78837 29.9332L6.99071 29.1668L7.33524 29.7082C7.70087 30.2777 8.32665 30.5941 8.95946 30.5941C9.12118 30.5941 9.2829 30.573 9.43759 30.5309L13.2063 36.416C13.347 36.634 13.5649 36.7887 13.8251 36.8449C13.8954 36.859 13.9657 36.866 14.036 36.866C14.2188 36.866 14.4016 36.8098 14.5634 36.7113L17.4251 34.8762C17.6431 34.7355 17.7977 34.5176 17.854 34.2574C17.9102 33.9973 17.861 33.7371 17.7204 33.5191L13.9657 27.648C14.3876 27.1699 14.5423 26.509 14.3876 25.8902C19.9352 23.4434 24.8571 22.1496 29.8001 21.8262C30.1938 22.2691 30.7634 22.5152 31.3329 22.5152C31.7126 22.5152 32.0923 22.4098 32.4368 22.1918C33.3931 21.5801 33.6673 20.3074 33.0556 19.3512L22.5157 2.89101ZM19.5345 5.8582L29.111 20.8137C24.2313 21.2074 19.3587 22.5293 13.8884 24.948L9.67665 18.3738C13.5157 14.9707 16.8274 10.759 19.5345 5.8582ZM5.2118 29.0402C4.92352 29.223 4.5368 29.1387 4.35399 28.8504L2.14618 25.4051C2.05477 25.2645 2.02665 25.1027 2.0618 24.941C2.09696 24.7793 2.1954 24.6387 2.33602 24.5543L3.53837 23.7879L6.41415 28.2738L5.2118 29.0402ZM8.21415 29.1316L7.5954 28.1613C7.5954 28.1543 7.58837 28.1543 7.58837 28.1473L4.15009 22.7684C4.14305 22.7543 4.13602 22.7473 4.12899 22.7332L3.5243 21.784C3.39774 21.5871 3.35555 21.3551 3.4118 21.1301C3.46102 20.898 3.59462 20.7082 3.79149 20.5816L7.36337 18.2965C7.50399 18.2051 7.66571 18.1559 7.82743 18.1559C7.89071 18.1559 7.95399 18.1629 8.01727 18.1769C8.2493 18.2262 8.43915 18.3598 8.56571 18.5566L13.2626 25.8973C13.5227 26.298 13.4032 26.8395 13.0024 27.0996L12.7915 27.2332L9.43055 29.3848C9.01571 29.652 8.4743 29.5324 8.21415 29.1316ZM14.0501 35.7762L10.3727 30.0316L13.1149 28.2738L16.7923 34.0184L14.0501 35.7762ZM31.8673 21.2988C31.4032 21.5941 30.7845 21.4605 30.4821 20.9965L19.9423 4.53632C19.8016 4.31132 19.7524 4.04414 19.8087 3.78398C19.8649 3.52382 20.0196 3.29882 20.2446 3.1582C20.4696 3.01757 20.7368 2.96836 20.997 3.02461C21.2571 3.08086 21.4821 3.23554 21.6227 3.46054L32.1626 19.9207C32.4649 20.3848 32.3313 21.0035 31.8673 21.2988Z" fill="white" stroke="white" stroke-width="0.5"/>
<path d="M30.2079 9.87993C30.3063 9.87993 30.4048 9.8518 30.4892 9.79555L33.6392 7.77759C33.8853 7.6229 33.9556 7.29243 33.8009 7.04634C33.6462 6.80024 33.3157 6.72993 33.0696 6.88462L29.9196 8.90259C29.6735 9.05727 29.6032 9.38774 29.7579 9.63384C29.8634 9.78852 30.0321 9.87993 30.2079 9.87993Z" fill="white" stroke="white" stroke-width="0.5"/>
<path d="M27.2197 5.78024C27.2689 5.79431 27.3111 5.80134 27.3603 5.80134C27.5924 5.80134 27.8033 5.64665 27.8666 5.41462L28.865 1.81462C28.9423 1.53337 28.7806 1.24509 28.4994 1.16774C28.2181 1.0904 27.9299 1.25212 27.8525 1.53337L26.8541 5.13337C26.7697 5.40759 26.9384 5.7029 27.2197 5.78024Z" fill="white" stroke="white" stroke-width="0.5"/>
<path d="M36.4587 12.7912L32.7251 12.8966C32.4368 12.9037 32.2048 13.1498 32.2118 13.4381C32.2189 13.7263 32.4509 13.9513 32.7392 13.9513H32.7532L36.4868 13.8459C36.7751 13.8388 37.0071 13.5927 37.0001 13.3045C36.9931 13.0091 36.754 12.7841 36.4587 12.7912Z" fill="white" stroke="white" stroke-width="0.5"/>
</svg>
