<svg width="18" height="15" viewBox="0 0 18 15" fill="none" xmlns="http://www.w3.org/2000/svg">
<path d="M8.33154 0.347656C8.27081 0.321231 8.20039 0.332881 8.15186 0.37793L0.553223 7.45703C0.519435 7.48851 0.500545 7.53293 0.500488 7.5791C0.500489 7.62533 0.519408 7.66965 0.553223 7.70117L8.15283 14.7812C8.20137 14.8265 8.27267 14.839 8.3335 14.8125C8.39418 14.786 8.43311 14.7254 8.43311 14.6592V10.5879C11.1135 10.6099 13.7065 11.6136 15.7661 13.4346L17.2202 14.7891C17.2687 14.834 17.3392 14.8457 17.3999 14.8193C17.4606 14.7929 17.5004 14.7332 17.5005 14.667V11.6934L17.4829 11.3252C17.4193 10.4709 17.1955 9.63682 16.8228 8.87207L16.6538 8.5498C16.3004 7.91599 15.8472 7.34978 15.313 6.87598L15.0396 6.64648C13.3562 5.27178 11.2787 4.5408 9.14795 4.57422H8.43213V0.5L8.42432 0.452148C8.41044 0.405999 8.37718 0.367539 8.33154 0.347656ZM7.12158 5.57129C7.12175 5.66319 7.19663 5.7373 7.28857 5.7373H9.1499C10.9524 5.7083 12.7118 6.32763 14.1392 7.49414L14.1421 7.49609C14.6849 7.92444 15.1414 8.46223 15.4849 9.07812L15.6245 9.34668C15.9796 10.075 16.1731 10.8795 16.1899 11.6992V12.1855C13.8798 10.3586 11.0599 9.38259 8.16455 9.4209H7.28857C7.19653 9.4209 7.12158 9.49584 7.12158 9.58789V12.1328L2.23486 7.5791L7.12158 3.02539V5.57129Z" fill="#257CFF" stroke="#257CFF" stroke-width="0.333333" stroke-linejoin="round"/>
</svg>
