<svg width="28" height="28" viewBox="0 0 28 28" fill="none" xmlns="http://www.w3.org/2000/svg">
<path d="M16.5313 2.39861C16.3186 2.06446 15.9894 1.83663 15.5995 1.75056C15.2146 1.66449 14.8146 1.73537 14.4854 1.94801C14.1563 2.16065 13.9233 2.48974 13.8423 2.87958C13.7765 3.18841 13.8068 3.50231 13.9284 3.78583C11.9888 7.39058 9.5986 10.4688 6.8235 12.9445C6.65638 12.8078 6.45888 12.7116 6.24113 12.6661C5.87652 12.5851 5.50684 12.6509 5.19793 12.8534L2.62539 14.4988C2.31648 14.6963 2.09873 15.0051 2.0177 15.3696C1.93668 15.7342 2.00251 16.1037 2.20507 16.4126L2.45321 16.7974L1.59232 17.3593C1.32393 17.5315 1.13656 17.7998 1.06566 18.1188C0.994764 18.4327 1.05553 18.7567 1.22771 19.025L2.81783 21.5058C3.04571 21.8653 3.43564 22.0627 3.8357 22.0627C4.05852 22.0627 4.28134 22.002 4.4839 21.8703L5.34985 21.3185L5.59799 21.7083C5.86133 22.1184 6.31203 22.3462 6.76779 22.3462C6.88426 22.3462 7.00074 22.3311 7.11215 22.3007L9.82648 26.5383C9.92777 26.6952 10.0848 26.8066 10.2721 26.8471C10.3228 26.8572 10.3734 26.8623 10.424 26.8623C10.5557 26.8623 10.6874 26.8218 10.8038 26.7509L12.8649 25.4295C13.0219 25.3283 13.1333 25.1713 13.1738 24.984C13.2143 24.7967 13.1789 24.6093 13.0776 24.4524L10.3734 20.2249C10.6772 19.8806 10.7887 19.4047 10.6772 18.9592C14.6728 17.1973 18.2176 16.2658 21.7777 16.0329C22.0613 16.3518 22.4714 16.529 22.8816 16.529C23.1551 16.529 23.4285 16.4531 23.6767 16.2961C24.3654 15.8557 24.5629 14.9393 24.1223 14.2507L16.5313 2.39861ZM14.3841 4.53513L21.2814 15.3038C17.7669 15.5873 14.2575 16.5392 10.3177 18.2808L7.28433 13.547C10.0493 11.0966 12.4345 8.06394 14.3841 4.53513ZM4.06865 21.2274C3.86102 21.359 3.5825 21.2982 3.45083 21.0907L1.86072 18.6099C1.79489 18.5086 1.77463 18.3922 1.79995 18.2757C1.82527 18.1593 1.89617 18.058 1.99745 17.9973L2.8634 17.4454L4.9346 20.6755L4.06865 21.2274ZM6.231 21.2932L5.78536 20.5945C5.78536 20.5894 5.7803 20.5894 5.7803 20.5844L3.30397 16.7113C3.29891 16.7012 3.29385 16.6961 3.28878 16.686L2.85327 16.0025C2.76212 15.8607 2.73174 15.6937 2.77225 15.5316C2.8077 15.3646 2.90391 15.2279 3.04571 15.1367L5.61825 13.4913C5.71953 13.4255 5.836 13.3901 5.95248 13.3901C5.99805 13.3901 6.04363 13.3951 6.08921 13.4052C6.25632 13.4407 6.39305 13.5369 6.4842 13.6786L9.867 18.9643C10.0544 19.2528 9.96828 19.6427 9.67963 19.83L9.5277 19.9262L7.10708 21.4754C6.8083 21.6678 6.41837 21.5818 6.231 21.2932ZM10.4342 26.0776L7.78567 21.9412L9.76065 20.6755L12.4092 24.8119L10.4342 26.0776ZM23.2665 15.6532C22.9323 15.8658 22.4866 15.7696 22.2689 15.4354L14.6779 3.58331C14.5766 3.4213 14.5411 3.22891 14.5816 3.04159C14.6221 2.85426 14.7336 2.69225 14.8956 2.591C15.0577 2.48974 15.2501 2.4543 15.4375 2.4948C15.6248 2.5353 15.7869 2.64669 15.8882 2.8087L23.4792 14.6608C23.6969 14.995 23.6007 15.4405 23.2665 15.6532Z" fill="#D42D1F" stroke="#D42D1F" stroke-width="0.5"/>
<path d="M22.0706 7.42472C22.1415 7.42472 22.2124 7.40447 22.2731 7.36396L24.5418 5.91093C24.7191 5.79954 24.7697 5.56159 24.6583 5.38439C24.5469 5.20719 24.3089 5.15656 24.1316 5.26794L21.8629 6.72098C21.6857 6.83236 21.6351 7.07032 21.7465 7.24752C21.8224 7.3589 21.944 7.42472 22.0706 7.42472Z" fill="#D42D1F" stroke="#D42D1F" stroke-width="0.5"/>
<path d="M19.9187 4.47185C19.9541 4.48198 19.9845 4.48704 20.02 4.48704C20.1871 4.48704 20.339 4.37566 20.3846 4.20858L21.1037 1.6164C21.1594 1.41389 21.0429 1.20631 20.8403 1.15062C20.6378 1.09493 20.4301 1.21137 20.3744 1.41389L19.6553 4.00607C19.5946 4.20352 19.7161 4.41616 19.9187 4.47185Z" fill="#D42D1F" stroke="#D42D1F" stroke-width="0.5"/>
<path d="M26.573 9.51769L23.8839 9.59364C23.6763 9.5987 23.5092 9.7759 23.5143 9.98348C23.5193 10.1911 23.6865 10.3531 23.8941 10.3531H23.9042L26.5932 10.2771C26.8008 10.2721 26.968 10.0949 26.9629 9.88728C26.9578 9.67464 26.7857 9.51263 26.573 9.51769Z" fill="#D42D1F" stroke="#D42D1F" stroke-width="0.5"/>
</svg>
