<svg width="29" height="22" viewBox="0 0 29 22" fill="none" xmlns="http://www.w3.org/2000/svg">
<path d="M19.4634 17.5026C19.6437 17.6828 19.884 17.7429 20.1243 17.7429C20.3645 17.7429 20.6048 17.6828 20.7851 17.5026C24.4495 13.778 24.4495 7.77072 20.7851 4.10627C20.4246 3.74583 19.884 3.74583 19.5235 4.10627C19.1631 4.4667 19.1631 5.00736 19.5235 5.3678C22.5272 8.37145 22.5272 13.2374 19.5235 16.241C19.103 16.5414 19.103 17.1421 19.4634 17.5026Z" fill="white"/>
<path d="M23.309 21.33C23.5493 21.33 23.7896 21.27 23.9699 21.0898C29.6768 15.3828 29.6768 6.13157 23.9699 0.424626C23.6094 0.0641873 23.0688 0.0641873 22.7083 0.424626C22.3479 0.785064 22.3479 1.32572 22.7083 1.68616C27.6944 6.67222 27.6944 14.8422 22.7083 19.8282C22.3479 20.1887 22.3479 20.7293 22.7083 21.0898C22.8285 21.27 23.0688 21.33 23.309 21.33Z" fill="white"/>
<path d="M0.901096 15.3937H3.00365L4.6857 20.0794C4.80584 20.4399 5.16628 20.6802 5.52672 20.6802C5.64687 20.6802 5.70694 20.6802 5.82709 20.6201C6.30767 20.4399 6.54796 19.9593 6.36774 19.4787L4.92599 15.3937H6.12745L16.2197 21.401C16.3399 21.4611 16.5201 21.5212 16.7003 21.5212C16.8805 21.5212 17.0007 21.4611 17.1208 21.401C17.4212 21.2208 17.6014 20.9204 17.6014 20.6201V0.916114C17.6014 0.615749 17.4212 0.315384 17.1208 0.135164C16.8205 -0.0450548 16.5201 -0.0450548 16.2197 0.135164L6.12745 6.14247H0.901096C0.420511 6.14247 0 6.56298 0 7.04357V14.5527C0 15.0333 0.420511 15.3937 0.901096 15.3937ZM15.7992 19.0582L7.32891 14.012V7.52415L15.7992 2.47801V19.0582ZM1.80219 7.94466H5.52672V13.6516H1.80219V7.94466Z" fill="white"/>
</svg>
