<svg width="32" height="32" viewBox="0 0 32 32" fill="none" xmlns="http://www.w3.org/2000/svg">
<g opacity="0.8" clip-path="url(#clip0_4063_7341)">
<path d="M16 20C18.2091 20 20 18.2091 20 16C20 13.7909 18.2091 12 16 12C13.7909 12 12 13.7909 12 16C12 18.2091 13.7909 20 16 20Z" stroke="white" stroke-width="2" stroke-linecap="round" stroke-linejoin="round"/>
<path d="M25.8666 20.0006C25.6891 20.4028 25.6362 20.8489 25.7146 21.2814C25.793 21.714 25.9992 22.1131 26.3066 22.4273L26.3866 22.5073C26.6345 22.755 26.8312 23.0491 26.9654 23.3728C27.0996 23.6965 27.1687 24.0435 27.1687 24.394C27.1687 24.7444 27.0996 25.0914 26.9654 25.4152C26.8312 25.7389 26.6345 26.033 26.3866 26.2806C26.1389 26.5286 25.8448 26.7253 25.5211 26.8595C25.1974 26.9937 24.8504 27.0627 24.4999 27.0627C24.1495 27.0627 23.8025 26.9937 23.4787 26.8595C23.155 26.7253 22.8609 26.5286 22.6132 26.2806L22.5333 26.2006C22.219 25.8933 21.8199 25.6871 21.3874 25.6086C20.9548 25.5302 20.5087 25.5832 20.1066 25.7606C19.7122 25.9297 19.3759 26.2103 19.139 26.568C18.9021 26.9258 18.775 27.3449 18.7733 27.774V28.0006C18.7733 28.7079 18.4923 29.3862 17.9922 29.8863C17.4921 30.3864 16.8138 30.6673 16.1066 30.6673C15.3993 30.6673 14.7211 30.3864 14.221 29.8863C13.7209 29.3862 13.4399 28.7079 13.4399 28.0006V27.8806C13.4296 27.4393 13.2867 27.0113 13.0299 26.6523C12.7731 26.2932 12.4142 26.0197 11.9999 25.8673C11.5978 25.6898 11.1517 25.6369 10.7191 25.7153C10.2866 25.7937 9.88749 25.9999 9.57325 26.3073L9.49325 26.3873C9.24559 26.6353 8.95149 26.8319 8.62776 26.9661C8.30403 27.1003 7.95703 27.1694 7.60658 27.1694C7.25614 27.1694 6.90914 27.1003 6.58541 26.9661C6.26168 26.8319 5.96758 26.6353 5.71992 26.3873C5.47198 26.1397 5.27529 25.8456 5.14109 25.5218C5.00689 25.1981 4.93782 24.8511 4.93782 24.5006C4.93782 24.1502 5.00689 23.8032 5.14109 23.4795C5.27529 23.1557 5.47198 22.8616 5.71992 22.614L5.79992 22.534C6.1073 22.2197 6.3135 21.8206 6.39192 21.3881C6.47035 20.9556 6.41741 20.5095 6.23992 20.1073C6.0709 19.713 5.79026 19.3766 5.43254 19.1397C5.07482 18.9028 4.65563 18.7757 4.22659 18.774H3.99992C3.29267 18.774 2.6144 18.493 2.1143 17.9929C1.6142 17.4928 1.33325 16.8146 1.33325 16.1073C1.33325 15.4001 1.6142 14.7218 2.1143 14.2217C2.6144 13.7216 3.29267 13.4407 3.99992 13.4407H4.11992C4.56124 13.4303 4.98926 13.2875 5.34832 13.0307C5.70738 12.7739 5.98087 12.415 6.13325 12.0007C6.31074 11.5985 6.36368 11.1524 6.28526 10.7199C6.20683 10.2873 6.00063 9.88822 5.69325 9.57398L5.61325 9.49398C5.36531 9.24632 5.16862 8.95222 5.03443 8.62849C4.90023 8.30476 4.83115 7.95776 4.83115 7.60732C4.83115 7.25688 4.90023 6.90987 5.03443 6.58614C5.16862 6.26241 5.36531 5.96831 5.61325 5.72065C5.86091 5.47271 6.15502 5.27602 6.47874 5.14182C6.80247 5.00763 7.14948 4.93855 7.49992 4.93855C7.85036 4.93855 8.19736 5.00763 8.52109 5.14182C8.84482 5.27602 9.13892 5.47271 9.38658 5.72065L9.46658 5.80065C9.78082 6.10803 10.1799 6.31423 10.6125 6.39266C11.045 6.47108 11.4911 6.41814 11.8933 6.24065H11.9999C12.3943 6.07163 12.7306 5.79099 12.9675 5.43327C13.2044 5.07555 13.3315 4.65637 13.3333 4.22732V4.00065C13.3333 3.29341 13.6142 2.61513 14.1143 2.11503C14.6144 1.61494 15.2927 1.33398 15.9999 1.33398C16.7072 1.33398 17.3854 1.61494 17.8855 2.11503C18.3856 2.61513 18.6666 3.29341 18.6666 4.00065V4.12065C18.6683 4.5497 18.7954 4.96888 19.0323 5.3266C19.2692 5.68433 19.6056 5.96497 19.9999 6.13398C20.4021 6.31147 20.8482 6.36442 21.2807 6.28599C21.7132 6.20756 22.1123 6.00137 22.4266 5.69398L22.5066 5.61398C22.7542 5.36605 23.0483 5.16936 23.3721 5.03516C23.6958 4.90096 24.0428 4.83189 24.3933 4.83189C24.7437 4.83189 25.0907 4.90096 25.4144 5.03516C25.7382 5.16936 26.0323 5.36605 26.2799 5.61398C26.5279 5.86165 26.7245 6.15575 26.8587 6.47948C26.9929 6.8032 27.062 7.15021 27.062 7.50065C27.062 7.85109 26.9929 8.1981 26.8587 8.52182C26.7245 8.84555 26.5279 9.13966 26.2799 9.38732L26.1999 9.46732C25.8925 9.78156 25.6863 10.1807 25.6079 10.6132C25.5295 11.0457 25.5824 11.4918 25.7599 11.894V12.0007C25.9289 12.395 26.2096 12.7313 26.5673 12.9682C26.925 13.2051 27.3442 13.3323 27.7733 13.334H27.9999C28.7072 13.334 29.3854 13.6149 29.8855 14.115C30.3856 14.6151 30.6666 15.2934 30.6666 16.0007C30.6666 16.7079 30.3856 17.3862 29.8855 17.8863C29.3854 18.3864 28.7072 18.6673 27.9999 18.6673H27.8799C27.4509 18.669 27.0317 18.7962 26.674 19.0331C26.3162 19.27 26.0356 19.6063 25.8666 20.0006V20.0006Z" stroke="white" stroke-width="2" stroke-linecap="round" stroke-linejoin="round"/>
</g>
<defs>
<clipPath id="clip0_4063_7341">
<rect width="32" height="32" fill="white"/>
</clipPath>
</defs>
</svg>
