<svg width="18" height="12" viewBox="0 0 18 12" fill="none" xmlns="http://www.w3.org/2000/svg">
<path d="M4.15388 0.4C4.15388 0.17908 3.94724 0 3.69234 0C3.43744 0 3.2308 0.17908 3.2308 0.4V10.6344L0.787895 8.51718C0.607655 8.36094 0.315427 8.36094 0.135187 8.51718C-0.0450623 8.67334 -0.0450623 8.92662 0.135187 9.08286L3.36596 11.8829C3.41781 11.9278 3.47892 11.9598 3.54398 11.9789C3.57843 11.989 3.61472 11.9957 3.65229 11.9985C3.67605 12.0003 3.69994 12.0005 3.72374 11.9991C3.82958 11.9929 3.92564 11.9558 4 11.8981C4.00714 11.8926 4.01409 11.8869 4.02081 11.881L7.24943 9.08286C7.42969 8.92662 7.42969 8.67334 7.24943 8.51718C7.06919 8.36094 6.77697 8.36094 6.59672 8.51718L4.15388 10.6343V0.4Z" fill="#262626"/>
<path fill-rule="evenodd" clip-rule="evenodd" d="M8.76904 1.20078C8.76904 0.979869 8.97572 0.800781 9.23058 0.800781H11.9998C12.2547 0.800781 12.4614 0.979869 12.4614 1.20078C12.4614 1.42169 12.2547 1.60078 11.9998 1.60078H9.23058C8.97572 1.60078 8.76904 1.42169 8.76904 1.20078Z" fill="#262626"/>
<path fill-rule="evenodd" clip-rule="evenodd" d="M8.76904 6.30039C8.76904 6.07951 8.97572 5.90039 9.23058 5.90039H14.769C15.0239 5.90039 15.2306 6.07951 15.2306 6.30039C15.2306 6.52127 15.0239 6.70039 14.769 6.70039H9.23058C8.97572 6.70039 8.76904 6.52127 8.76904 6.30039Z" fill="#262626"/>
<path fill-rule="evenodd" clip-rule="evenodd" d="M8.76904 11.4C8.76904 11.1791 8.97572 11 9.23058 11H17.5383C17.7931 11 17.9998 11.1791 17.9998 11.4C17.9998 11.6209 17.7931 11.8 17.5383 11.8H9.23058C8.97572 11.8 8.76904 11.6209 8.76904 11.4Z" fill="#262626"/>
</svg>
