<svg width="360" height="360" viewBox="0 0 360 360" fill="none" xmlns="http://www.w3.org/2000/svg">
<path fill-rule="evenodd" clip-rule="evenodd" d="M321.082 173.13L201.263 232.172C200.679 232.46 200.06 232.601 199.449 232.601C198.162 232.601 196.903 231.996 196.109 230.892L184.127 214.277V338.02L321.089 270.527V173.13H321.082ZM38.9251 270.52L81.0634 291.291V254.095C81.0634 252.675 81.7947 251.353 83.004 250.601C84.2134 249.848 85.7251 249.771 86.9978 250.404L131.442 272.306C132.849 273.002 133.735 274.43 133.735 275.998V317.243L175.88 338.013V214.27L163.899 230.885C163.104 231.989 161.845 232.594 160.559 232.594C159.947 232.594 159.321 232.46 158.738 232.165L38.9251 173.13V270.52ZM122.281 99.4641C126.352 112.212 136.821 123.026 153.429 131.702C152.417 127.884 151.749 124.298 151.404 120.916C150.012 118.962 148.592 117.056 147.192 115.207C139.929 105.588 133.06 96.4969 135.499 84.9094C135.97 82.6875 138.143 81.2602 140.372 81.7313C142.594 82.2023 144.021 84.382 143.557 86.6039C142.067 93.6914 146.11 99.9984 151.727 107.529C153.155 98.8453 156.931 91.6594 161.979 85.2117C159.898 83.1797 157.704 81.1477 155.363 79.0453C146.574 71.1633 136.814 62.4094 131.217 48.6352C120.804 68.3648 117.795 85.4297 122.281 99.4641ZM160.51 72.6188L180 63.0141L182.911 64.4484C182.095 65.1867 181.273 65.918 180.464 66.6492C175.929 70.7203 171.443 74.7492 167.393 79.0031C165.305 76.9781 163.139 74.9813 160.854 72.9281C160.735 72.8227 160.622 72.7242 160.51 72.6188ZM185.963 72.7734C199.28 60.8344 214.158 47.4961 221.78 25.7836C238.88 56.7352 243.788 83.4398 236.377 105.265C229.12 126.64 209.679 144.232 178.615 157.641C182.468 145.315 190.076 135.141 197.522 125.29C207.767 111.734 217.442 98.9227 214.088 82.9898C213.617 80.768 211.423 79.3336 209.215 79.8047C206.993 80.2758 205.566 82.4555 206.037 84.6844C208.617 96.9539 200.433 107.782 190.955 120.326C183.699 129.938 175.669 140.583 171.232 153.612C163.849 139.823 160.214 128.834 159.356 119.651C159.406 119.137 159.363 118.617 159.216 118.111C157.985 97.875 170.599 86.5477 185.963 72.7734ZM247.029 96.0469L315.886 129.98L180 196.938L44.1212 129.98L112.978 96.0469C113.358 98.0649 113.829 100.041 114.448 101.974C119.799 118.744 134.142 132.384 157.036 142.573C159.891 149.815 163.856 157.795 169.165 166.662C170.339 168.652 172.167 168.82 174.185 168.391C211.985 153.71 235.533 133.369 244.174 107.923C245.468 104.084 246.396 100.118 247.029 96.0469ZM348.631 157.929C348.342 159.103 347.541 160.095 346.458 160.629L329.316 169.073V273.087C329.316 274.655 328.43 276.082 327.024 276.778L181.821 348.328C181.245 348.609 180.626 348.75 180 348.75C179.374 348.75 178.756 348.609 178.179 348.328L32.9908 276.771C31.5845 276.082 30.6986 274.648 30.6986 273.08V169.073L13.5494 160.622C12.4595 160.088 11.665 159.096 11.3767 157.922C11.0814 156.748 11.3204 155.503 12.0306 154.519L31.472 127.568C31.8798 127.005 32.4283 126.626 33.0189 126.337L32.9908 126.288L112.057 87.3211C111.727 72.2461 117.317 55.1391 128.792 36.2461C129.656 34.8117 131.316 34.0523 132.975 34.3195C134.627 34.5938 135.956 35.8383 136.322 37.4766C139.275 50.5547 146.271 59.168 154.02 66.6352L178.179 54.7312C179.325 54.1687 180.668 54.1687 181.821 54.7312L189.401 58.4648C201.185 47.2641 211.978 34.4039 216.478 14.4563C216.851 12.818 218.173 11.5734 219.832 11.2992C221.485 11.025 223.144 11.7914 224.016 13.2258C240.729 40.7531 248.717 65.5594 247.901 87.293L327.017 126.288L326.988 126.337C327.579 126.626 328.127 127.005 328.535 127.568L347.977 154.519C348.68 155.51 348.919 156.748 348.631 157.929ZM248.906 274.908C247.901 272.869 248.738 270.401 250.777 269.395L287.072 251.508C289.111 250.502 291.579 251.339 292.585 253.378C293.59 255.417 292.753 257.885 290.714 258.891L254.419 276.778C253.835 277.066 253.21 277.207 252.598 277.207C251.079 277.2 249.624 276.356 248.906 274.908Z" fill="#CB122D" stroke="white" stroke-width="3"/>
</svg>
