<svg width="34" height="40" viewBox="0 0 34 40" fill="none" xmlns="http://www.w3.org/2000/svg">
<g opacity="0.8">
<path d="M3.35294 1C2.05755 1 1 2.07258 1 3.38636V36.6136C1 37.9274 2.05755 39 3.35294 39H30.6471C31.9424 39 33 37.9274 33 36.6136V3.38636C33 2.07258 31.9424 1 30.6471 1H3.35294ZM3.35294 1.95455H30.6471C31.4373 1.95455 32.0588 2.58489 32.0588 3.38636V36.6136C32.0588 37.4151 31.4373 38.0455 30.6471 38.0455H3.35294C2.56268 38.0455 1.94118 37.4151 1.94118 36.6136V3.38636C1.94118 2.58489 2.56268 1.95455 3.35294 1.95455ZM6.23529 8.77273C5.93647 8.7775 5.76278 9.05327 5.76471 9.25V15.9318C5.76475 16.1817 5.98889 16.409 6.23529 16.4091H14.7059C14.9523 16.409 15.1764 16.1817 15.1765 15.9318V9.25C15.1764 9.0001 14.9523 8.77277 14.7059 8.77273H6.23529ZM6.70588 9.72727H14.2353V15.4545H6.70588V9.72727ZM18.4706 12.1136C18.2107 12.1136 18 12.3273 18 12.5909C18 12.8545 18.2107 13.0682 18.4706 13.0682H27.7647C28.0246 13.0682 28.2353 12.8545 28.2353 12.5909C28.2353 12.3273 28.0246 12.1136 27.7647 12.1136H18.4706ZM16.5441 21.2578C16.4088 21.2731 16.2816 21.3518 16.2059 21.4666L12.2353 27.2834L9.79412 25.6428C9.59012 25.5003 9.27638 25.56 9.13718 25.7678C8.99802 25.9756 9.05892 26.2934 9.26471 26.4332L12.0882 28.3423C12.2894 28.48 12.5948 28.4237 12.7353 28.223L16.9706 22.0184C17.1886 21.7231 16.9059 21.2189 16.5441 21.2578ZM6.23529 22.2272C5.95115 22.2272 5.76645 22.4761 5.76471 22.7045V31.2955C5.76475 31.5454 5.98889 31.7727 6.23529 31.7727H14.7059C14.9523 31.7727 15.1764 31.5454 15.1765 31.2955V30.3409C15.1812 30.0888 14.9545 29.8636 14.7059 29.8636C14.4572 29.8636 14.2318 30.0888 14.2353 30.3409V30.8182H6.70588V23.1818H11.8824C12.131 23.1866 12.3529 22.9567 12.3529 22.7045C12.3529 22.4523 12.131 22.2237 11.8824 22.2272H6.23529ZM18.4706 26.5227C18.2107 26.5227 18 26.7364 18 27C18 27.2636 18.2107 27.4772 18.4706 27.4772H27.7647C28.0246 27.4772 28.2353 27.2636 28.2353 27C28.2353 26.7364 28.0246 26.5227 27.7647 26.5227H18.4706Z" fill="white" stroke="white" stroke-width="0.8"/>
</g>
</svg>
